<svg width="246" height="246" viewBox="0 0 246 246" fill="none" xmlns="http://www.w3.org/2000/svg">
<g clip-path="url(#clip0)">
<rect width="369" height="246" transform="translate(-56)" fill="black"/>
<rect x="-109" y="-65" width="564" height="419" fill="#2266B7"/>
<path d="M-196.112 -16.4196H374.416V339.798H-196.112V-16.4196Z" fill="url(#paint0_linear)"/>
<path d="M143.013 299.89C142.736 299.749 115.029 285.376 76.635 273.929C41.9719 263.593 -8.61024 253.632 -54.761 263.91C-51.8361 255.848 -48.9407 247.686 -46.0746 239.423C33.5033 227.33 90.5827 249.589 106.237 256.735C106.672 256.935 106.943 257.052 107.043 257.093C107.255 257.176 107.473 257.211 107.691 257.211C108.438 257.211 109.138 256.753 109.427 256.012C109.797 255.06 109.321 253.979 108.373 253.597C108.279 253.562 108.085 253.468 107.797 253.338C92.0363 246.146 34.8981 223.851 -44.6916 235.445C-43.2145 231.161 -41.7491 226.848 -40.2896 222.512C-40.2837 222.5 -40.2837 222.494 -40.2778 222.482C-39.3892 219.832 -38.5005 217.176 -37.6119 214.514C-21.0807 204.242 9.83356 203.161 33.0443 204.09C59.8802 205.165 82.2435 209.031 83.7266 209.507C84.5858 209.819 85.5333 209.378 85.857 208.526C86.1748 207.668 85.7392 206.71 84.88 206.387C83.1616 205.747 60.1451 201.88 33.5622 200.781C11.1989 199.859 -18.2088 200.799 -36.0641 209.837C-32.0034 197.496 -28.1604 185.421 -24.547 173.709C17.1605 161.234 68.6725 182.289 69.1904 182.5C69.4258 182.6 69.6671 182.647 69.9084 182.647C70.6441 182.647 71.3385 182.212 71.6386 181.495C72.0388 180.543 71.5856 179.45 70.6322 179.051C70.4969 178.998 57.026 173.433 38.4527 169.619C22.1039 166.258 -1.51874 163.637 -23.2405 169.455C-21.0513 162.309 -18.9444 155.299 -16.92 148.459C-16.8905 148.371 -16.8611 148.289 -16.8435 148.2C-15.6547 144.175 -14.5012 140.215 -13.3713 136.307C15.7481 121.434 65.73 152.049 66.2361 152.367C66.5068 152.537 66.8128 152.619 67.113 152.619C67.6721 152.619 68.2135 152.343 68.5313 151.832C69.0139 151.05 68.7785 150.028 67.9958 149.54C67.8663 149.458 54.6661 141.319 37.9348 135.337C17.2899 127.957 0.464535 126.87 -12.1589 132.076C-7.60979 116.222 -3.55497 101.42 -0.00627516 87.9923C0.0466928 87.8572 0.0820047 87.7161 0.105543 87.5751C0.635203 85.5654 1.15309 83.591 1.6651 81.646C16.9016 73.3663 55.4782 82.4451 69.2964 86.7289C69.4612 86.7818 69.6259 86.8053 69.7907 86.8053C70.5028 86.8053 71.156 86.347 71.3797 85.6359C71.6504 84.7604 71.1619 83.826 70.285 83.5557C69.7966 83.403 23.893 69.3587 2.74207 77.5091C5.69638 66.1033 8.24461 55.8727 10.3927 47.0348C42.3133 41.9753 67.6426 57.4593 67.8957 57.6179C68.2017 57.8119 68.549 57.9 68.8844 57.9C69.5082 57.9 70.1203 57.5886 70.4734 57.0244C71.0207 56.1489 70.7559 54.9971 69.879 54.4448C68.8079 53.7749 43.9258 38.526 11.3402 43.1095C16.2542 22.6542 18.7612 10.6431 18.8318 10.3199C19.0437 9.30922 18.3905 8.32201 17.3782 8.11046C16.3601 7.9048 15.3714 8.55119 15.1654 9.5619C15.0772 9.97324 11.0518 29.2591 3.14814 60.7794C-17.7498 36.0168 -74.3759 17.0718 -76.8712 16.2432C-77.7422 15.9553 -78.6838 16.4254 -78.9781 17.3009C-79.2664 18.1706 -78.7956 19.1108 -77.9188 19.3988C-77.3008 19.6044 -16.6316 39.8951 2.12412 64.8164C0.641082 70.6691 -0.959653 76.9038 -2.68986 83.497C-21.1749 63.8997 -46.9751 49.6556 -65.7426 41.041C-86.8994 31.3217 -103.943 26.4503 -104.113 26.4033C-105.108 26.1212 -106.144 26.6971 -106.426 27.6902C-106.709 28.6832 -106.132 29.7175 -105.137 29.9995C-104.472 30.1934 -38.8007 49.1444 -3.81979 87.7808C-4.90265 91.8706 -6.03258 96.0898 -7.2096 100.421C-27.672 76.3162 -115.713 50.1198 -119.615 48.9681C-120.497 48.7095 -121.421 49.209 -121.68 50.0904C-121.939 50.9719 -121.439 51.8945 -120.556 52.153C-119.585 52.441 -24.2292 80.7998 -8.30422 104.446C-11.6999 116.862 -15.4546 130.178 -19.58 144.216C-44.7211 118.76 -69.3383 103.306 -85.7636 94.7618C-104.149 85.1952 -116.236 82.0338 -116.743 81.9045C-117.743 81.646 -118.767 82.2512 -119.02 83.2502C-119.279 84.2491 -118.679 85.2716 -117.672 85.5302C-117.19 85.6536 -69.3678 98.4285 -20.7924 148.336C-23.7643 158.378 -26.9187 168.767 -30.2555 179.445C-48.5464 153.336 -83.3154 133.357 -109.781 121.029C-139.494 107.184 -165.442 99.7155 -165.701 99.6449C-166.589 99.3923 -167.507 99.9035 -167.76 100.785C-168.013 101.666 -167.501 102.589 -166.619 102.842C-166.36 102.912 -140.63 110.322 -111.146 124.061C-84.3394 136.554 -48.9171 156.968 -31.5326 183.499C-34.4575 192.79 -37.5177 202.28 -40.7133 211.934C-41.4254 214.079 -42.1434 216.242 -42.8731 218.416C-87.5114 175.713 -130.349 151.415 -158.609 138.522C-189.788 124.296 -209.921 120.547 -210.763 120.4C-211.781 120.218 -212.752 120.888 -212.94 121.904C-213.122 122.921 -212.452 123.896 -211.433 124.078C-211.233 124.114 -190.812 127.927 -160.027 141.989C-131.797 154.888 -88.8591 179.286 -44.1973 222.341C-46.9397 230.468 -49.8175 238.818 -52.8307 247.345C-112.688 199.647 -166.336 176.318 -200.958 165.13C-238.97 152.843 -263.004 152.114 -263.246 152.108C-264.152 152.073 -264.929 152.813 -264.952 153.73C-264.976 154.647 -264.252 155.411 -263.328 155.434C-263.093 155.44 -239.423 156.175 -201.823 168.344C-167.331 179.509 -113.771 202.85 -54.0136 250.659C-57.8507 261.448 -61.8937 272.501 -66.1486 283.754C-147.41 234.076 -199.087 212.751 -228.194 203.608C-260.315 193.524 -272.768 195.534 -273.286 195.628C-274.298 195.804 -274.975 196.768 -274.804 197.784C-274.627 198.801 -273.668 199.483 -272.644 199.312C-272.521 199.289 -260.132 197.408 -228.565 207.416C-199.646 216.582 -148.269 237.884 -67.5022 287.315C-77.0595 312.412 -87.6586 338.415 -99.2639 364.447C-106.044 345.414 -120.733 326.698 -143.008 308.734C-162.152 293.297 -186.934 278.365 -216.654 264.351C-267.195 240.516 -315.223 227.401 -315.705 227.271C-316.594 227.03 -317.506 227.553 -317.747 228.441C-317.989 229.328 -317.465 230.239 -316.576 230.48C-316.099 230.609 -268.307 243.66 -218.031 267.377C-188.558 281.28 -164.012 296.071 -145.079 311.337C-121.957 329.982 -107.232 349.362 -101.277 368.954C-106.044 379.537 -110.975 390.114 -116.078 400.627C-134.074 377.433 -157.049 355.444 -184.415 335.254C-206.702 318.806 -231.925 303.504 -259.391 289.771C-306.142 266.396 -343.724 255.519 -344.095 255.413C-344.978 255.16 -345.902 255.671 -346.155 256.553C-346.408 257.434 -345.896 258.357 -345.013 258.609C-344.642 258.715 -307.307 269.528 -260.815 292.78C-217.972 314.211 -158.368 350.89 -117.69 403.959C-125.823 420.594 -134.374 437.054 -143.331 453.102C-160.233 425.519 -183.215 400.033 -211.681 377.316C-235.18 358.559 -262.445 341.635 -292.73 327.009C-344.271 302.117 -387.303 292.386 -387.733 292.286C-388.627 292.087 -389.522 292.651 -389.722 293.55C-389.922 294.443 -389.357 295.336 -388.456 295.536C-388.033 295.63 -345.378 305.279 -294.178 330.006C-247.244 352.677 -183.438 392.976 -145.197 456.451C-148.74 462.733 -152.347 468.944 -156.014 475.079C-183.432 448.724 -212.257 426.388 -241.718 408.707C-266.241 393.987 -291.27 382.422 -316.099 374.337C-361.038 359.705 -391.546 360.85 -398.691 362.408C-399.591 362.602 -400.156 363.489 -399.962 364.388C-399.768 365.287 -398.879 365.851 -397.979 365.657C-389.28 363.765 -358.078 364.165 -317.129 377.498C-279.141 389.867 -220.679 417.345 -157.762 478.011C-173.516 504.125 -190.418 528.723 -208.432 550.701C-209.085 551.5 -208.968 552.681 -208.167 553.333C-207.82 553.615 -207.402 553.756 -206.984 553.756C-206.443 553.756 -205.907 553.521 -205.537 553.069C-190.277 534.453 -175.246 513.292 -160.516 489.723C-73.2931 470.719 32.5559 553.933 44.3731 563.517L44.5143 563.628C44.8203 563.875 45.1911 563.999 45.556 563.999C46.0444 563.999 46.527 563.787 46.8566 563.382C47.4333 562.665 47.3215 561.619 46.6035 561.043L46.474 560.937C41.1716 556.642 12.8114 534.212 -25.2709 514.579C-48.3875 502.662 -70.6566 494.059 -91.4721 489.006C-115.742 483.118 -138.129 482.054 -158.103 485.838C-151.606 475.296 -145.168 464.284 -138.794 452.814C-65.9603 450.675 -1.24215 466.435 40.3241 480.08C85.6274 494.953 113.946 510.589 114.229 510.742C114.488 510.883 114.764 510.954 115.035 510.954C115.618 510.954 116.189 510.648 116.489 510.102C116.936 509.302 116.648 508.286 115.847 507.839C115.565 507.681 87.0281 491.92 41.4482 476.948C-0.0121393 463.327 -64.3772 447.613 -136.917 449.435C-133.327 442.907 -129.76 436.225 -126.212 429.409C-110.481 419.895 -88.1117 415.412 -59.6809 416.087C-36.4466 416.64 -9.18109 420.624 21.3624 427.922C73.4512 440.374 117.548 458.396 117.989 458.579C118.195 458.667 118.413 458.702 118.625 458.702C119.278 458.702 119.902 458.314 120.167 457.674C120.52 456.827 120.114 455.852 119.261 455.505C118.819 455.323 74.5164 437.212 22.1805 424.702C-8.59846 417.345 -36.1053 413.325 -59.575 412.767C-86.0813 412.133 -107.527 415.94 -123.452 424.073C-117.978 413.402 -112.558 402.396 -107.203 391.043C-101.771 379.531 -96.3979 367.673 -91.0954 355.48C-41.2665 354.557 8.15633 369.306 40.9421 381.905C76.8175 395.685 101.088 409.929 101.329 410.076C101.629 410.252 101.959 410.334 102.282 410.334C102.924 410.334 103.547 410.005 103.895 409.418C104.418 408.53 104.124 407.385 103.236 406.856C102.994 406.715 78.5006 392.335 42.3545 378.444C9.60407 365.857 -39.601 351.155 -89.4712 351.725C-86.7581 345.449 -84.0687 339.085 -81.3968 332.633C-43.3145 322.337 1.48267 333.062 32.4617 343.933C66.4186 355.85 91.5949 370.517 91.8479 370.664C92.1481 370.84 92.4718 370.922 92.7954 370.922C93.4369 370.922 94.0608 370.593 94.4139 370C94.9376 369.107 94.6375 367.967 93.7489 367.438C93.4958 367.291 68.0605 352.465 33.78 340.425C3.01868 329.624 -41.1959 318.97 -79.596 328.296C-76.2297 320.11 -72.8988 311.795 -69.5973 303.345C-32.127 289.789 12.1935 299.867 42.89 310.773C76.5821 322.743 101.623 338.28 101.87 338.438C102.147 338.609 102.447 338.691 102.753 338.691C103.306 338.691 103.848 338.415 104.165 337.91C104.654 337.134 104.418 336.106 103.636 335.618C103.383 335.459 78.0828 319.758 44.067 307.664C24.0637 300.554 4.98428 296.053 -12.6356 294.29C-33.1745 292.233 -51.7773 293.92 -68.0201 299.285C-66.5076 295.383 -65.001 291.458 -63.5003 287.503C-63.4062 287.338 -63.3414 287.162 -63.3002 286.98C-60.9403 280.757 -58.5981 274.47 -56.2793 268.111C-10.3228 257.14 40.6949 267.136 75.4992 277.508C113.564 288.855 141.018 303.081 141.288 303.222C141.565 303.369 141.859 303.434 142.154 303.434C142.83 303.434 143.478 303.069 143.813 302.429C144.284 301.5 143.931 300.366 143.013 299.89V299.89Z" fill="url(#paint1_linear)"/>
<path d="M188.194 116.428C188.294 116.351 198.522 108.694 209.556 96.5775C219.526 85.6418 232.173 68.7769 236.563 49.9494C239.023 52.4586 241.524 54.9736 244.072 57.4945C234.427 88.956 216.077 106.032 210.663 110.534C210.51 110.657 210.422 110.739 210.386 110.769C210.322 110.833 210.269 110.91 210.227 110.986C210.092 111.262 210.139 111.597 210.363 111.838C210.651 112.144 211.134 112.161 211.446 111.879C211.475 111.85 211.546 111.797 211.646 111.715C217.101 107.184 235.468 90.0901 245.302 58.7168C246.627 60.0213 247.957 61.3258 249.298 62.6304C249.304 62.6363 249.304 62.6363 249.31 62.6421C250.128 63.4413 250.952 64.2405 251.782 65.0396C252.647 72.9491 247.562 84.5312 243.101 92.9166C237.94 102.612 232.549 110.163 232.108 110.628C231.843 110.886 231.831 111.315 232.096 111.585C232.355 111.856 232.791 111.862 233.061 111.603C233.603 111.086 239.117 103.288 244.231 93.6923C248.539 85.6183 253.406 74.6179 253.235 66.4382C257.073 70.1226 260.857 73.6777 264.541 77.086C261.751 94.6619 244.837 109.905 244.667 110.058C244.59 110.128 244.531 110.21 244.484 110.299C244.355 110.569 244.39 110.904 244.602 111.139C244.885 111.456 245.367 111.48 245.685 111.204C245.732 111.162 250.175 107.184 254.877 101.02C259.02 95.5962 264.176 87.3577 265.882 78.3259C268.136 80.4002 270.349 82.4216 272.521 84.3784C272.544 84.4019 272.574 84.4313 272.603 84.4548C273.88 85.6065 275.14 86.7348 276.381 87.8454C276.711 101.214 256.531 114.195 256.325 114.324C256.213 114.394 256.131 114.494 256.078 114.6C255.978 114.806 255.984 115.052 256.119 115.258C256.319 115.575 256.743 115.669 257.061 115.47C257.114 115.434 262.463 112.02 267.642 106.914C274.027 100.62 277.417 94.6149 277.729 89.0383C282.779 93.5277 287.528 97.647 291.859 101.337C291.9 101.378 291.948 101.42 291.995 101.455C292.642 102.007 293.283 102.548 293.907 103.083C294.266 110.163 284.067 122.762 280.036 127.093C279.989 127.146 279.948 127.199 279.918 127.263C279.795 127.528 279.842 127.851 280.071 128.057C280.348 128.315 280.778 128.298 281.037 128.021C281.178 127.869 294.507 113.448 295.249 104.211C298.939 107.325 302.264 110.075 305.154 112.432C301.364 125.089 291.147 131.671 291.047 131.735C290.923 131.817 290.829 131.923 290.765 132.052C290.653 132.282 290.659 132.564 290.806 132.793C291.029 133.151 291.506 133.257 291.865 133.034C292.301 132.758 302.352 126.3 306.437 113.478C313.122 118.919 317.112 121.969 317.224 122.051C317.559 122.31 318.042 122.245 318.301 121.91C318.56 121.575 318.495 121.093 318.16 120.835C318.024 120.729 311.61 115.822 301.37 107.325C314.223 104.017 331.266 86.5174 332.007 85.7476C332.266 85.4773 332.26 85.0483 331.99 84.7839C331.719 84.5253 331.289 84.5312 331.024 84.8015C330.842 84.9954 312.581 103.741 300.051 106.232C298.15 104.646 296.132 102.953 294.001 101.143C304.518 97.8115 314.358 90.8305 320.867 85.4479C328.211 79.3777 333.031 73.9598 333.078 73.9069C333.361 73.5896 333.331 73.1077 333.014 72.8257C332.696 72.5436 332.213 72.573 331.931 72.8903C331.742 73.1019 313.093 93.9332 292.613 99.9622C291.294 98.8399 289.935 97.6705 288.54 96.4717C301.075 93.2104 326.369 65.4216 327.487 64.1935C327.741 63.9173 327.717 63.4824 327.44 63.2297C327.164 62.9771 326.728 63.0006 326.475 63.2768C326.199 63.5823 298.804 93.6805 287.245 95.3494C283.261 91.9 279.006 88.151 274.551 84.1434C288.416 79.3953 298.492 73.0725 304.565 68.536C311.362 63.4589 314.676 59.5688 314.811 59.4043C315.082 59.0811 315.041 58.5993 314.717 58.329C314.393 58.0586 313.911 58.0998 313.634 58.423C313.505 58.5758 300.298 73.9304 273.245 82.974C270.061 80.1005 266.783 77.0918 263.428 73.9715C276.317 71.862 289.864 62.601 299.116 55.0382C309.503 46.5471 316.859 38.3144 316.936 38.2321C317.189 37.9501 317.159 37.5211 316.877 37.2743C316.594 37.0216 316.165 37.051 315.917 37.3331C315.847 37.4153 308.543 45.5775 298.239 54.004C288.87 61.6608 275.046 71.0922 262.157 72.7904C259.244 70.0638 256.278 67.255 253.277 64.3639C252.612 63.7233 251.941 63.0711 251.264 62.4188C274.963 53.5516 291.536 42.0811 301.311 33.9542C312.098 24.9929 317.053 18.2411 317.259 17.959C317.506 17.6182 317.43 17.1364 317.089 16.8896C316.747 16.6428 316.265 16.7192 316.017 17.06C315.97 17.1305 310.939 23.9763 300.281 32.8201C290.506 40.9293 273.88 52.4233 250.046 61.2377C247.527 58.7873 244.955 56.2429 242.342 53.6221C270.579 40.0303 288.717 24.4053 298.992 13.64C310.274 1.81697 314.805 -6.90927 314.852 -6.99742C315.029 -7.32649 314.893 -7.7437 314.558 -7.91411C314.222 -8.08452 313.811 -7.95525 313.64 -7.6203C313.599 -7.53216 309.126 1.05305 297.962 12.7468C287.716 23.471 269.596 39.0607 241.33 52.5937C238.023 49.2678 234.656 45.8184 231.255 42.2515C264.023 21.1263 281.066 5.87159 289.605 -3.22486C299.027 -13.2674 300.493 -18.2152 300.551 -18.4209C300.663 -18.8263 300.428 -19.2435 300.022 -19.3611C299.616 -19.4786 299.192 -19.2435 299.074 -18.8381C299.063 -18.7911 297.556 -13.8903 288.263 -4.03578C279.748 4.99015 262.763 20.1391 230.178 41.1233C222.604 33.1492 214.871 24.6345 207.314 15.7437C215.547 16.6251 225.07 14.5332 235.657 9.509C244.755 5.19582 254.666 -1.2857 265.117 -9.74751C282.885 -24.1385 296.249 -39.5049 296.385 -39.6577C296.632 -39.9397 296.597 -40.3687 296.314 -40.6155C296.032 -40.8623 295.602 -40.827 295.355 -40.545C295.226 -40.3922 281.925 -25.1022 264.246 -10.7876C253.883 -2.39631 244.067 4.02057 235.062 8.2926C224.075 13.5048 214.3 15.491 206.008 14.21C202.942 10.5785 199.911 6.88231 196.927 3.13913C208.685 0.624093 220.891 -3.94176 233.203 -10.4409C243.231 -15.7354 253.359 -22.3109 263.305 -29.9912C280.236 -43.0659 290.918 -54.9829 291.024 -55.1005C291.277 -55.3825 291.247 -55.8115 290.971 -56.0583C290.688 -56.311 290.258 -56.2816 290.011 -56.0054C289.905 -55.8879 279.289 -44.0531 262.451 -31.0489C246.933 -19.0673 222.81 -3.61857 195.991 1.95212C191.289 -3.99465 186.722 -10.0648 182.379 -16.2114C195.568 -17.5453 209.062 -21.4941 222.504 -27.9463C233.603 -33.276 244.69 -40.3217 255.466 -48.8775C273.804 -63.4506 285.033 -77.5772 285.144 -77.7182C285.38 -78.012 285.327 -78.441 285.033 -78.676C284.738 -78.9111 284.309 -78.8582 284.073 -78.5644C283.961 -78.4233 272.833 -64.4202 254.618 -49.947C237.917 -36.6784 211.71 -20.3248 181.473 -17.4924C179.778 -19.9134 178.124 -22.3403 176.506 -24.779C191.107 -30.2028 204.472 -36.8606 216.23 -44.5761C226.017 -50.9988 234.733 -58.1679 242.124 -65.8834C255.501 -79.8454 260.486 -91.2865 261.18 -94.1893C261.269 -94.5537 261.039 -94.9239 260.674 -95.0061C260.309 -95.0943 259.939 -94.8651 259.856 -94.5008C259.015 -90.9633 253.33 -79.5398 241.142 -66.8177C229.836 -55.0182 209.309 -38.359 175.741 -25.9366C168.891 -36.3728 162.794 -46.9619 157.874 -57.4921C157.697 -57.8741 157.238 -58.0386 156.856 -57.8623C156.691 -57.7859 156.561 -57.6566 156.491 -57.498C156.397 -57.2982 156.385 -57.0573 156.485 -56.8398C160.657 -47.9197 165.807 -38.6234 171.904 -29.0216C163.453 6.44746 113.936 30.6812 108.298 33.3372L108.233 33.3666C108.086 33.4371 107.98 33.5488 107.909 33.6839C107.821 33.8602 107.815 34.0776 107.909 34.2716C108.074 34.6124 108.48 34.7534 108.816 34.5947L108.875 34.5654C111.399 33.3725 124.723 26.9027 138.73 16.3607C147.234 9.96147 154.36 3.28016 159.922 -3.48929C166.401 -11.387 170.768 -19.4433 172.91 -27.4703C175.653 -23.2041 178.577 -18.8792 181.685 -14.5014C169.556 12.7057 152.253 33.7544 139.842 46.6469C126.312 60.6971 115.513 68.3538 115.407 68.4302C115.307 68.5007 115.236 68.5889 115.183 68.6888C115.077 68.9062 115.095 69.1648 115.242 69.3763C115.46 69.6819 115.884 69.7583 116.19 69.5409C116.296 69.4645 127.183 61.7489 140.801 47.6106C153.189 34.7534 170.409 13.8339 182.603 -13.2145C184.38 -10.7347 186.21 -8.23731 188.105 -5.72227C188.829 1.75821 186.516 10.7959 181.226 21.1499C176.9 29.6117 170.591 38.949 162.482 48.9034C148.646 65.8858 134.163 78.9311 134.016 79.0604C133.945 79.1192 133.892 79.1955 133.857 79.2719C133.739 79.5129 133.774 79.8125 133.963 80.0241C134.216 80.3062 134.645 80.3238 134.922 80.077C135.069 79.9477 149.617 66.8378 163.523 49.779C171.704 39.7482 178.065 30.3286 182.432 21.7786C187.37 12.1239 189.765 3.55047 189.583 -3.7596C192.554 0.148112 195.662 4.09696 198.904 8.08694C202.194 12.1298 205.625 16.2138 209.186 20.3272C200.688 38.8433 186.475 54.433 176.006 64.2816C164.553 75.0528 154.984 81.4697 154.89 81.5284C154.772 81.6048 154.684 81.7106 154.625 81.834C154.513 82.069 154.525 82.357 154.678 82.592C154.914 82.9446 155.39 83.0386 155.743 82.8036C155.838 82.7389 165.495 76.2692 177.041 65.4157C187.499 55.5847 201.659 40.0655 210.298 21.5906C212.134 23.7002 214.011 25.8215 215.918 27.9546C212.97 43.8087 201.058 58.4112 191.548 67.8955C181.12 78.2906 171.239 84.966 171.139 85.0307C171.021 85.1071 170.933 85.2128 170.874 85.3362C170.762 85.5713 170.774 85.8592 170.927 86.0943C171.162 86.4468 171.639 86.5409 171.992 86.2999C172.092 86.2353 182.079 79.4952 192.607 69.0002C202.053 59.5865 213.829 45.1838 217.195 29.3884C219.62 32.0797 222.103 34.7828 224.64 37.4976C223.004 53.7043 211.422 68.2422 201.947 77.6207C191.548 87.91 181.367 94.3798 181.267 94.4444C181.155 94.5149 181.073 94.6148 181.02 94.7265C180.92 94.9322 180.926 95.179 181.055 95.3846C181.255 95.702 181.679 95.796 181.997 95.5962C182.097 95.5315 192.39 88.9971 202.889 78.6079C209.062 72.5025 214.112 66.2678 217.89 60.0918C222.292 52.8934 224.969 45.7361 225.87 38.8021C227.041 40.0538 228.224 41.3054 229.419 42.5571C229.466 42.6217 229.519 42.6746 229.577 42.7216C231.461 44.696 233.367 46.6704 235.304 48.6566C231.208 67.5312 218.466 84.5547 208.462 95.5315C197.521 107.543 187.393 115.129 187.293 115.205C187.193 115.282 187.111 115.382 187.064 115.487C186.946 115.734 186.964 116.04 187.14 116.275C187.376 116.61 187.858 116.68 188.194 116.428V116.428Z" fill="url(#paint2_linear)"/>
<path d="M33.1802 275.779C33.345 275.691 50.1116 267 73.34 260.072C94.3144 253.82 124.917 247.791 152.836 254.008C151.064 249.131 149.31 244.189 147.58 239.194C99.4344 231.878 64.9008 245.346 55.4317 249.665C55.1669 249.783 55.0021 249.859 54.9432 249.883C54.8137 249.93 54.6843 249.953 54.5489 249.953C54.0958 249.953 53.672 249.677 53.5014 249.231C53.2777 248.655 53.5661 248.002 54.137 247.767C54.1899 247.744 54.3076 247.691 54.4901 247.609C64.0239 243.26 98.5928 229.768 146.745 236.785C145.85 234.193 144.961 231.584 144.079 228.957C144.079 228.952 144.073 228.946 144.073 228.94C143.531 227.336 142.996 225.731 142.46 224.115C132.456 217.898 113.753 217.246 99.711 217.81C83.4741 218.462 69.9443 220.801 69.0439 221.089C68.526 221.277 67.9492 221.013 67.755 220.496C67.5608 219.973 67.8256 219.397 68.3494 219.203C69.3911 218.815 83.3152 216.476 99.3991 215.812C112.929 215.254 130.719 215.824 141.524 221.289C139.064 213.82 136.746 206.516 134.557 199.435C109.321 191.884 78.1599 204.624 77.8421 204.753C77.7008 204.812 77.5537 204.841 77.4065 204.841C76.9652 204.841 76.5415 204.577 76.359 204.142C76.1177 203.566 76.3943 202.902 76.971 202.661C77.0534 202.626 85.2043 199.265 96.4389 196.955C106.332 194.922 120.621 193.336 133.762 196.855C132.438 192.531 131.161 188.294 129.937 184.151C129.919 184.098 129.901 184.045 129.89 183.992C129.172 181.56 128.471 179.162 127.789 176.794C110.169 167.792 79.9312 186.319 79.6252 186.507C79.4604 186.607 79.278 186.66 79.0956 186.66C78.7601 186.66 78.4306 186.49 78.2363 186.184C77.9421 185.714 78.0892 185.091 78.56 184.797C78.6365 184.75 86.6226 179.82 96.7449 176.206C109.233 171.74 119.414 171.082 127.053 174.232C124.299 164.642 121.851 155.686 119.697 147.56C119.661 147.477 119.644 147.395 119.632 147.307C119.308 146.09 118.996 144.898 118.69 143.716C109.474 138.704 86.1341 144.198 77.7714 146.79C77.6714 146.819 77.5713 146.837 77.4713 146.837C77.0417 146.837 76.6415 146.561 76.512 146.132C76.3472 145.603 76.6415 145.039 77.177 144.874C77.4713 144.78 105.243 136.283 118.043 141.219C116.254 134.314 114.712 128.133 113.417 122.779C94.1025 119.718 78.7837 129.085 78.6248 129.179C78.4364 129.296 78.2305 129.349 78.0245 129.349C77.6478 129.349 77.2771 129.161 77.0652 128.82C76.7356 128.291 76.8946 127.592 77.4242 127.263C78.0716 126.857 93.1256 117.632 112.841 120.405C109.869 108.03 108.35 100.767 108.309 100.567C108.18 99.956 108.574 99.3566 109.192 99.2273C109.804 99.1039 110.404 99.4976 110.534 100.109C110.587 100.361 113.023 112.026 117.808 131.094C130.449 116.122 164.712 104.657 166.218 104.158C166.748 103.981 167.319 104.269 167.489 104.798C167.666 105.327 167.378 105.897 166.848 106.067C166.471 106.191 129.772 118.466 118.42 133.545C119.314 137.088 120.285 140.861 121.333 144.845C132.514 132.992 148.127 124.372 159.48 119.16C172.28 113.277 182.59 110.333 182.696 110.304C183.297 110.134 183.926 110.48 184.097 111.086C184.268 111.685 183.921 112.314 183.314 112.484C182.914 112.596 143.178 124.066 122.021 147.442C122.675 149.916 123.363 152.472 124.075 155.093C136.452 140.508 189.723 124.66 192.083 123.966C192.619 123.808 193.178 124.113 193.337 124.648C193.496 125.183 193.19 125.741 192.654 125.9C192.065 126.076 134.374 143.229 124.74 157.537C126.794 165.047 129.066 173.11 131.561 181.601C146.768 166.199 161.663 156.85 171.603 151.679C182.726 145.891 190.041 143.975 190.347 143.899C190.953 143.746 191.571 144.11 191.724 144.71C191.883 145.315 191.518 145.932 190.912 146.09C190.624 146.167 161.687 153.894 132.297 184.086C134.092 190.162 136.004 196.45 138.023 202.908C149.087 187.113 170.12 175.025 186.133 167.568C204.112 159.189 219.808 154.676 219.967 154.629C220.502 154.476 221.061 154.787 221.214 155.322C221.367 155.857 221.055 156.415 220.52 156.568C220.367 156.615 204.795 161.093 186.957 169.407C170.738 176.964 149.31 189.316 138.794 205.37C140.565 210.994 142.413 216.735 144.349 222.576C144.779 223.875 145.214 225.185 145.656 226.501C172.662 200.663 198.58 185.961 215.676 178.163C234.538 169.554 246.72 167.292 247.226 167.198C247.844 167.086 248.433 167.492 248.545 168.109C248.656 168.726 248.25 169.313 247.632 169.425C247.509 169.449 235.156 171.752 216.53 180.261C199.451 188.065 173.469 202.826 146.45 228.875C148.11 233.794 149.852 238.841 151.676 244.001C187.893 215.142 220.349 201.028 241.294 194.258C264.293 186.825 278.835 186.384 278.976 186.384C279.524 186.36 279.994 186.807 280.006 187.365C280.018 187.918 279.582 188.382 279.023 188.394C278.882 188.4 264.558 188.84 241.812 196.203C220.944 202.961 188.54 217.082 152.382 246.004C154.701 252.533 157.149 259.22 159.727 266.025C208.891 235.968 240.158 223.069 257.766 217.534C277.199 211.429 284.732 212.651 285.044 212.704C285.656 212.809 286.068 213.397 285.962 214.008C285.856 214.619 285.273 215.037 284.655 214.931C284.585 214.919 277.087 213.779 257.984 219.832C240.488 225.379 209.403 238.265 160.539 268.17C166.324 283.354 172.733 299.085 179.76 314.833C183.862 303.321 192.748 291.992 206.225 281.127C217.807 271.79 232.802 262.752 250.781 254.272C281.36 239.852 310.42 231.919 310.709 231.843C311.244 231.696 311.797 232.013 311.944 232.548C312.092 233.083 311.774 233.635 311.238 233.782C310.95 233.858 282.036 241.756 251.617 256.106C233.785 264.515 218.931 273.464 207.478 282.702C193.49 293.984 184.58 305.707 180.978 317.56C183.862 323.965 186.845 330.364 189.929 336.722C200.817 322.69 214.717 309.386 231.278 297.169C244.76 287.221 260.02 277.96 276.64 269.651C304.924 255.506 327.663 248.925 327.887 248.86C328.423 248.708 328.982 249.019 329.135 249.548C329.288 250.083 328.982 250.641 328.446 250.794C328.223 250.858 305.63 257.399 277.505 271.466C251.587 284.429 215.523 306.624 190.912 338.732C195.832 348.798 201.005 358.752 206.425 368.466C216.653 351.777 230.554 336.358 247.779 322.613C261.998 311.266 278.494 301.024 296.814 292.174C327.999 277.113 354.034 271.225 354.293 271.167C354.835 271.043 355.376 271.39 355.494 271.931C355.618 272.471 355.27 273.012 354.729 273.129C354.47 273.188 328.664 279.023 297.691 293.984C269.295 307.699 230.689 332.08 207.555 370.487C209.697 374.289 211.88 378.044 214.099 381.758C230.683 365.81 248.127 352.3 265.953 341.599C280.789 332.691 295.931 325.698 310.956 320.803C338.145 311.948 356.6 312.641 360.926 313.587C361.467 313.705 361.815 314.24 361.697 314.786C361.579 315.327 361.044 315.673 360.496 315.556C355.235 314.41 336.356 314.651 311.58 322.719C288.598 330.205 253.229 346.829 215.158 383.532C224.692 399.328 234.915 414.212 245.814 427.51C246.208 427.992 246.138 428.709 245.655 429.103C245.443 429.273 245.19 429.361 244.937 429.361C244.607 429.361 244.284 429.22 244.06 428.944C234.826 417.685 225.734 404.875 216.818 390.619C164.047 379.119 100.011 429.467 92.8549 435.267L92.7725 435.337C92.5842 435.484 92.3605 435.561 92.1428 435.561C91.8485 435.561 91.5543 435.432 91.3601 435.185C91.0128 434.75 91.0776 434.121 91.5131 433.769L91.5896 433.704C94.7969 431.107 111.958 417.532 134.992 405.657C148.975 398.446 162.452 393.24 175.046 390.184C189.729 386.623 203.277 385.977 215.359 388.269C211.427 381.893 207.531 375.229 203.677 368.289C159.609 366.997 120.456 376.528 95.3089 384.784C67.9022 393.781 50.7648 403.241 50.5942 403.335C50.4411 403.424 50.2705 403.465 50.1057 403.465C49.7526 403.465 49.4113 403.277 49.2229 402.948C48.9522 402.46 49.1288 401.849 49.6113 401.578C49.782 401.484 67.0488 391.947 94.6263 382.892C119.708 374.653 158.65 365.146 202.541 366.244C200.369 362.296 198.209 358.253 196.061 354.128C186.545 348.369 173.01 345.66 155.808 346.065C141.748 346.4 125.252 348.81 106.773 353.223C75.2585 360.756 48.5814 371.662 48.3107 371.768C48.1871 371.821 48.0577 371.845 47.9282 371.845C47.5339 371.845 47.1573 371.609 46.9984 371.222C46.7865 370.71 47.0337 370.123 47.5457 369.911C47.8105 369.8 74.617 358.84 106.279 351.272C124.899 346.818 141.542 344.391 155.743 344.05C171.78 343.668 184.756 345.966 194.39 350.89C191.077 344.432 187.799 337.774 184.562 330.905C181.278 323.941 178.024 316.766 174.816 309.392C144.673 308.833 114.771 317.759 94.9323 325.375C73.2282 333.714 58.5449 342.334 58.3978 342.416C58.2153 342.522 58.0152 342.575 57.821 342.575C57.4326 342.575 57.056 342.375 56.8441 342.017C56.5263 341.476 56.7029 340.783 57.2443 340.465C57.3914 340.377 72.21 331.68 94.079 323.277C113.894 315.662 143.661 306.771 173.834 307.112C172.192 303.316 170.567 299.461 168.949 295.559C145.909 289.33 118.808 295.818 100.064 302.393C79.5193 309.603 64.2887 318.476 64.1357 318.565C63.9533 318.67 63.7591 318.723 63.5649 318.723C63.1765 318.723 62.7998 318.523 62.5879 318.165C62.2701 317.624 62.4526 316.931 62.9881 316.614C63.1411 316.525 78.5306 307.558 99.2696 300.272C117.878 293.737 144.632 287.291 167.866 292.932C165.83 287.979 163.817 282.949 161.816 277.836C139.147 269.633 112.334 275.732 93.7553 282.332C73.3753 289.571 58.2212 298.973 58.0682 299.067C57.9034 299.173 57.7151 299.22 57.5327 299.22C57.1972 299.22 56.8676 299.055 56.6793 298.75C56.3851 298.28 56.5263 297.657 56.9971 297.363C57.1501 297.269 72.4572 287.767 93.0373 280.451C105.143 276.15 116.684 273.423 127.341 272.359C139.765 271.114 151.023 272.136 160.851 275.38C159.933 273.018 159.027 270.644 158.114 268.252C158.056 268.152 158.02 268.046 157.997 267.935C156.573 264.168 155.154 260.366 153.748 256.523C125.941 249.883 95.0794 255.929 74.0226 262.205C50.9943 269.069 34.3867 277.678 34.2219 277.766C34.0571 277.854 33.8747 277.895 33.6981 277.895C33.292 277.895 32.8977 277.672 32.6917 277.29C32.4093 276.755 32.6211 276.073 33.1802 275.779V275.779Z" fill="url(#paint3_linear)"/>
<path d="M311.283 127.132C203.192 230.56 72.1192 306.969 -71.2236 350.124C-71.5119 350.03 -76.2729 310.571 -50.7906 271.053C-37.4315 284.433 -19.9528 297.208 -19.5055 297.496C-29.7867 285.397 -38.1318 271.482 -43.7697 261.017C-29.6632 242.571 -8.87709 224.654 22.7375 208.506C23.2907 208.224 23.8616 207.936 24.4442 207.637C38.1976 222.768 62.3853 239.991 62.4441 239.933C51.2507 227.152 42.1112 212.232 36.232 201.749C43.2117 198.305 51.286 194.356 60.0606 190.043C71.8955 206.461 98.8962 221.428 98.9786 221.334C91.7341 207.296 89.233 189.614 88.1442 176.146C134.56 153.622 187.267 124.153 216.609 120.856C225.784 119.957 235.595 119.875 245.323 120.221C250.113 125.974 254.939 132.315 259.164 138.937C259.164 138.937 256.516 130.769 252.373 120.527C282.993 122.243 311.283 127.108 311.283 127.132V127.132Z" fill="url(#paint4_linear)"/>
<path d="M107.92 385.737C81.6374 397.625 58.0265 403.031 37.723 404.306C32.4382 388.675 28.0008 371.246 27.9302 357.196C28.0361 357.313 0.90594 378.474 -0.3005 401.644C-53.9547 389.551 -71.0744 349.815 -71.2215 350.121C72.1153 306.966 203.188 230.557 311.285 127.129C311.432 126.947 318.882 182.389 302.957 225.021C301.08 230.151 298.09 235.869 294.13 241.986C266.411 234.382 235.267 229.722 234.537 229.546C250.221 239.976 264.104 253.838 274.897 266.731C272.955 268.911 270.937 271.103 268.847 273.312C250.192 258.992 232.672 246.282 232.678 246.276C243.506 256.824 254.205 268.218 263.622 278.713C218.318 325.964 142.136 371.211 107.92 385.737V385.737Z" fill="url(#paint5_linear)"/>
<path d="M19.2152 172.306C89.4771 67.3853 133.874 -52.649 148.775 -177.984C148.657 -178.213 115.095 -176.374 85.9284 -149.419C99.0286 -140.293 112.235 -127.654 112.535 -127.324C100.947 -134.088 88.1353 -138.971 78.5956 -142.115C65.3071 -127.695 53.4369 -107.809 44.6269 -79.1921C44.4739 -78.6926 44.315 -78.1755 44.1561 -77.6525C58.7747 -68.4561 76.6653 -50.9038 76.6241 -50.8391C64.3419 -58.255 50.5768 -63.6552 40.9782 -66.9988C39.1362 -60.6995 37.0293 -53.4188 34.7282 -45.4976C50.1354 -38.0818 66.5606 -17.8616 66.4959 -17.7793C53.7429 -21.734 38.6477 -21.211 27.2777 -20.1415C15.3369 21.7033 -1.47086 69.7828 0.0886862 94.6277C0.688961 102.378 2.06019 110.535 3.77275 118.562C9.26941 121.7 15.2545 124.773 21.3927 127.311C21.3927 127.311 14.2011 126.307 5.06746 124.373C10.9937 149.535 19.1975 172.306 19.2152 172.306V172.306Z" fill="url(#paint6_linear)"/>
<path d="M204.719 -34.4841C210.763 -58.0537 211.799 -78.4443 209.88 -95.4914C196.091 -97.5833 180.925 -98.7116 169.214 -96.7078C169.332 -96.6372 182.968 -122.269 202.088 -126.665C184.145 -169.432 148.54 -177.818 148.775 -177.988C133.874 -52.6476 89.4772 67.3867 19.2153 172.307C19.0858 172.46 66.3489 170.509 99.5113 151.029C103.507 148.714 107.827 145.394 112.341 141.21C101.942 119.315 93.4908 94.1413 93.2378 93.5596C104.225 105.054 117.808 114.538 130.125 121.613C131.656 119.68 133.186 117.682 134.716 115.625C120.05 102.239 106.897 89.5579 106.891 89.5637C117.261 97.009 128.319 104.213 138.441 110.495C171.139 65.9412 197.639 -3.94514 204.719 -34.4841V-34.4841Z" fill="url(#paint7_linear)"/>
<path d="M-172.154 322.208C-173.29 322.009 -174.408 321.75 -175.502 321.444C-175.944 321.321 -176.385 321.192 -176.821 321.051C-186.084 318.095 -193.87 311.496 -198.46 302.787L-219.741 262.429C-229.233 244.424 -226.856 223.311 -215.427 208.115C-215.168 207.774 -214.903 207.427 -214.638 207.092C-210.095 201.369 -204.233 196.545 -197.207 193.13C-193.711 191.432 -190.274 190.169 -186.908 189.246C-186.466 189.123 -186.025 189.011 -185.584 188.9C-175.673 186.431 -166.363 186.813 -157.847 187.442C-157.353 187.477 -156.864 187.513 -156.376 187.548C-148.172 188.188 -140.733 188.917 -134.26 187.348C-133.83 187.242 -133.407 187.131 -132.983 187.007C-132.583 186.884 -132.188 186.761 -131.794 186.62C-122.825 183.44 -115.999 179.039 -109.237 174.544C-108.83 174.273 -108.419 174.003 -108.012 173.727C-101.798 169.596 -95.5185 165.447 -87.5501 162.168C-87.1322 161.992 -86.7085 161.828 -86.2789 161.657C-80.6939 159.471 -74.2792 157.714 -66.5109 156.68C-65.84 156.586 -65.175 156.51 -64.5276 156.439C-63.9862 156.38 -63.4507 156.327 -62.9269 156.28C-54.2347 155.505 -47.7493 156.41 -42.4174 157.567C-41.8642 157.685 -41.3228 157.808 -40.7931 157.932C-33.3485 159.659 -28.1285 161.593 -21.8609 159.289C-21.3959 159.119 -20.9192 158.925 -20.4426 158.701C-17.247 157.232 -13.7277 154.635 -9.49633 150.375C-8.68418 149.558 -7.86615 148.794 -7.04813 148.071C-6.70679 147.772 -6.35958 147.472 -6.01236 147.19C-2.37538 144.169 1.31457 142.066 4.93389 140.697C5.4047 140.514 5.8755 140.35 6.34042 140.197C9.5831 139.133 12.7551 138.646 15.786 138.605C16.2803 138.593 16.7747 138.599 17.2631 138.616C26.8028 138.934 34.7065 143.582 38.3081 148.236C38.6201 148.641 38.9025 149.041 39.1438 149.446C39.2556 149.623 39.3557 149.799 39.4557 149.975C42.3041 155.246 42.6454 159.313 40.468 163.032C40.2031 163.491 39.903 163.937 39.5558 164.384C37.2371 167.422 33.1764 170.289 27.3854 173.492C27.0029 173.703 26.6145 173.915 26.2143 174.127C21.9477 176.424 16.8159 178.91 10.8072 181.754C5.9579 184.046 1.8854 186.249 -1.56914 188.394C-1.94578 188.629 -2.31064 188.864 -2.67552 189.093C-8.64887 192.931 -12.6448 196.574 -15.5403 200.194C-15.864 200.593 -16.17 200.999 -16.4643 201.392C-19.5422 205.57 -21.2665 209.737 -22.9967 214.15C-23.1556 214.555 -23.3145 214.961 -23.4734 215.366C-25.5096 220.649 -27.7165 226.278 -32.2892 232.701C-32.5893 233.124 -32.9013 233.553 -33.2249 233.988C-34.4726 235.651 -35.885 237.373 -37.4916 239.147C-39.6867 241.574 -41.8642 243.743 -44.0358 245.682C-44.4125 246.023 -44.795 246.358 -45.1716 246.681C-52.2631 252.821 -59.2075 256.682 -66.0578 259.767C-66.4638 259.955 -66.8758 260.137 -67.2819 260.314C-72.5961 262.641 -77.8515 264.55 -83.0656 266.742C-83.5247 266.936 -83.9837 267.13 -84.4427 267.33C-89.2332 269.393 -93.9942 271.749 -98.7376 274.94C-99.1554 275.216 -99.5674 275.504 -99.9852 275.798C-100.262 275.986 -100.533 276.18 -100.803 276.379C-105.935 280.105 -111.585 286.316 -117.852 293.003C-118.158 293.327 -118.464 293.656 -118.77 293.979C-124.402 299.961 -130.529 306.237 -137.232 311.402C-137.591 311.678 -137.95 311.954 -138.315 312.225C-148.266 319.635 -159.46 324.459 -172.154 322.208V322.208Z" fill="url(#paint8_linear)"/>
<path d="M-184.53 268.619C-191.08 271.457 -197.601 274.207 -204.074 276.834C-196.918 278.467 -190.98 281.923 -186.425 287.141C-182.388 291.76 -179.41 297.765 -177.591 304.981C-176.079 310.963 -175.59 316.834 -175.514 321.452C-175.955 321.329 -176.397 321.2 -176.832 321.059C-176.932 316.593 -177.415 310.998 -178.862 305.304C-182.864 289.503 -192.086 280.23 -206.281 277.727C-207.776 278.326 -209.265 278.926 -210.754 279.513L-211.442 278.203C-207.917 276.81 -204.374 275.377 -200.808 273.908C-193.893 244.885 -199.749 227.661 -205.875 218.318C-208.918 213.682 -212.343 210.391 -215.438 208.111C-215.179 207.77 -214.914 207.424 -214.65 207.089C-211.43 209.451 -207.899 212.847 -204.78 217.595C-200.726 223.777 -198.095 231.158 -196.971 239.537C-195.641 249.456 -196.435 260.809 -199.319 273.285C-195.617 271.751 -191.91 270.188 -188.184 268.584C-172.924 242.411 -174.808 220.31 -179.086 206.348C-181.281 199.191 -184.312 193.385 -186.913 189.236C-186.472 189.113 -186.031 189.001 -185.589 188.89C-182.994 193.085 -180.016 198.85 -177.85 205.902C-175.055 214.992 -174.107 224.418 -175.037 233.914C-176.138 245.149 -179.886 256.514 -186.184 267.714C-176.879 263.695 -167.522 259.475 -158.218 255.15C-158.212 255.121 -158.206 255.098 -158.194 255.068C-148.042 232.022 -150.214 211.719 -153.822 198.75C-155.016 194.449 -156.446 190.647 -157.859 187.438C-157.364 187.474 -156.876 187.509 -156.387 187.544C-155.051 190.653 -153.71 194.278 -152.58 198.345C-148.972 211.296 -146.777 231.434 -156.464 254.334C-150.585 251.589 -144.723 248.798 -138.915 245.984C-127.062 232.621 -124.302 215.926 -130.717 196.364C-131.77 193.15 -132.994 190.124 -134.271 187.35C-133.842 187.244 -133.418 187.133 -132.994 187.009C-131.729 189.771 -130.517 192.78 -129.475 195.959C-126.585 204.773 -125.538 213.2 -126.362 220.998C-127.28 229.689 -130.54 237.61 -136.049 244.591C-121.901 237.698 -108.065 230.688 -94.906 223.824C-97.978 196.453 -104.104 182.35 -108.718 175.333C-108.901 175.063 -109.077 174.799 -109.254 174.546C-108.848 174.276 -108.436 174.005 -108.03 173.729C-107.9 173.911 -107.777 174.099 -107.647 174.293C-100.891 184.418 -96.0124 201.277 -93.5113 223.09C-87.4202 219.905 -81.4704 216.755 -75.7148 213.67C-73.3196 189.683 -79.2694 174.605 -84.7072 166.16C-85.6547 164.685 -86.6198 163.357 -87.5732 162.165C-87.1554 161.988 -86.7316 161.824 -86.302 161.653C-85.4016 162.793 -84.4953 164.057 -83.6008 165.449C-78.1218 173.964 -72.1249 189.066 -74.3318 212.924C-69.7709 210.479 -65.3276 208.076 -61.0315 205.725C-56.1763 185.352 -58.5951 171.379 -61.4906 163.234C-62.4557 160.519 -63.5327 158.263 -64.5567 156.441C-64.0153 156.382 -63.4797 156.329 -62.956 156.282C-61.9908 158.069 -61.0021 160.214 -60.1017 162.746C-57.2003 170.903 -54.7639 184.753 -59.2954 204.779C-58.1714 204.162 -57.0532 203.551 -55.9468 202.94C-50.9092 200.166 -45.9775 197.434 -41.1753 194.748C-35.2137 183.654 -37.0675 172.06 -39.6981 164.262C-40.5338 161.788 -41.4931 159.532 -42.4406 157.563C-41.8874 157.681 -41.346 157.804 -40.8163 157.928C-40.0042 159.691 -39.192 161.665 -38.4681 163.804C-35.8846 171.449 -34.0249 182.632 -39.1332 193.603C-33.6895 190.553 -28.4164 187.568 -23.3435 184.671C-20.1067 173.247 -20.5716 164.85 -21.8781 159.279C-21.4132 159.109 -20.9365 158.915 -20.4598 158.692C-19.118 164.227 -18.6001 172.454 -21.5427 183.636C-14.4041 179.552 -7.67745 175.656 -1.44516 172.013C1.69159 166.09 -2.89288 155.554 -7.06539 148.056C-6.72406 147.756 -6.37685 147.456 -6.02963 147.174C-2.02189 154.296 2.39781 164.286 0.414545 170.95C2.62733 169.651 4.78126 168.388 6.85869 167.159C10.4015 156.576 7.66496 146.798 4.93428 140.704C5.40509 140.522 5.87589 140.358 6.34081 140.205C6.81162 141.269 7.29421 142.444 7.73559 143.713C9.61881 149.096 11.2372 157.193 8.7419 166.043C12.0729 164.068 15.2155 162.206 18.1463 160.449C21.4713 153.162 18.211 143.842 15.7804 138.613C16.2748 138.601 16.7692 138.607 17.2576 138.624C19.5822 143.737 22.3659 152.11 19.9765 159.35C27.8154 154.655 34.0419 150.859 38.3027 148.244C38.6146 148.649 38.8971 149.049 39.1383 149.454C36.6901 150.959 33.5887 152.857 29.8987 155.09C35.9309 156.888 38.9559 160.296 40.4625 163.04C40.1976 163.498 39.8975 163.945 39.5503 164.392C38.2791 161.683 35.2601 157.84 28.145 156.147C23.8666 158.733 18.8819 161.724 13.2852 165.05C19.2997 165.62 24.4786 170.286 27.3741 173.5C26.9915 173.711 26.6031 173.923 26.2029 174.134C23.0721 170.703 17.4224 165.79 11.1136 166.337C10.066 166.96 8.99496 167.588 7.90621 168.235C7.85913 168.27 7.81205 168.293 7.75909 168.317C1.23254 172.172 -5.98843 176.391 -13.7744 180.88C-7.43027 181.274 -3.69914 184.941 -1.57463 188.402C-1.95127 188.637 -2.31613 188.872 -2.68101 189.101C-5.70594 184.148 -10.1963 181.827 -16.0578 182.191C-18.1117 183.378 -20.2127 184.577 -22.3431 185.793C-22.3548 185.799 -22.3725 185.811 -22.3901 185.822C-25.7505 187.738 -29.1992 189.695 -32.7243 191.687C-24.4676 192.956 -18.8885 196.911 -15.5517 200.202C-15.8754 200.601 -16.1814 201.007 -16.4756 201.4C-20.2185 197.663 -26.1507 193.72 -34.8724 192.897C-40.7221 196.188 -46.7838 199.567 -53.0161 203.005C-41.5578 202.822 -29.8406 209.374 -23.0022 214.158C-23.1611 214.563 -23.32 214.969 -23.4789 215.374C-30.5998 210.362 -43.6529 203.04 -55.7232 204.491C-59.2542 206.43 -62.8912 208.417 -66.6165 210.438C-45.695 216.05 -36.3378 226.122 -32.3065 232.691C-32.6066 233.115 -32.9185 233.543 -33.2422 233.978C-37.0145 227.526 -46.36 217.025 -68.5115 211.461C-72.684 213.711 -76.9683 216.009 -81.3409 218.336C-63.9329 221.603 -53.4221 231.833 -47.6136 240.013C-46.2306 241.958 -45.0477 243.862 -44.0472 245.672C-44.4238 246.013 -44.8064 246.348 -45.183 246.671C-46.2011 244.808 -47.4194 242.828 -48.8435 240.818C-54.6933 232.592 -65.4453 222.232 -83.4654 219.458C-86.8023 221.227 -90.198 223.013 -93.6348 224.805C-93.7113 224.87 -93.8114 224.923 -93.9114 224.952C-95.8712 225.975 -97.8486 227.003 -99.8377 228.032C-84.0245 229.495 -75.5206 238.797 -71.1362 246.565C-68.3349 251.525 -66.846 256.39 -66.0633 259.757C-66.4693 259.946 -66.8813 260.128 -67.2874 260.304C-68.0348 256.996 -69.506 252.083 -72.2956 247.165C-78.7162 235.823 -88.7326 229.771 -102.068 229.183C-106.464 231.452 -110.919 233.72 -115.427 236C-100.685 238.538 -92.3048 248.111 -87.8263 255.897C-85.5546 259.846 -84.0539 263.671 -83.077 266.733C-83.5361 266.927 -83.9951 267.12 -84.4541 267.32C-85.4075 264.294 -86.8906 260.474 -89.1269 256.59C-95.7005 245.196 -105.311 238.65 -117.705 237.146C-121.218 238.909 -124.749 240.671 -128.31 242.428C-113.674 249.304 -105.47 260.933 -101.127 269.612C-100.203 271.463 -99.414 273.244 -98.7431 274.924C-99.1609 275.2 -99.5729 275.488 -99.9907 275.782C-100.679 274.025 -101.503 272.151 -102.468 270.223C-106.8 261.556 -115.098 249.879 -130.016 243.269C-142.41 249.368 -155.081 255.391 -167.781 261.162C-160.119 260.927 -152.615 262.696 -145.429 266.445C-138.744 269.929 -132.323 275.124 -126.338 281.887C-122.995 285.66 -120.159 289.515 -117.864 292.994C-118.17 293.317 -118.476 293.646 -118.782 293.969C-121.083 290.467 -123.949 286.559 -127.345 282.728C-136.519 272.374 -151.568 260.533 -171.218 262.713C-175.114 264.47 -179.01 266.198 -182.9 267.89C-161.113 277.469 -148.872 291.56 -142.416 301.802C-140.221 305.281 -138.532 308.536 -137.243 311.392C-137.602 311.668 -137.961 311.945 -138.326 312.215C-139.615 309.318 -141.322 305.992 -143.558 302.449C-150.02 292.218 -162.378 278.056 -184.53 268.619V268.619Z" fill="#A6D7F7"/>
<path d="M82.6625 25.1103C75.3473 24.4756 66.1548 20.6502 65.5368 17.7649C64.9248 14.8327 72.7284 10.2198 80.3319 10.4901C87.9119 10.7546 91.7784 14.5918 92.3081 18.7228C92.8554 22.9243 89.9835 25.6979 82.6625 25.1103Z" fill="url(#paint9_linear)"/>
<path d="M59.6047 6.41726C52.3248 7.01076 42.6733 4.76015 41.5963 2.01594C40.5194 -0.769406 47.4578 -6.59865 54.979 -7.57999C62.4707 -8.5672 66.8845 -5.43515 68.0556 -1.4628C69.2621 2.56243 66.8845 5.77087 59.6047 6.41726V6.41726Z" fill="url(#paint10_linear)"/>
<path d="M69.1685 29.7479C68.4446 22.7258 62.4419 14.3815 59.4111 14.6988C56.4214 14.9868 54.4323 23.7248 55.4092 30.4178C56.3979 37.1285 59.464 39.6494 63.2128 39.5789C66.8968 39.4908 69.9394 36.7407 69.1685 29.7479Z" fill="url(#paint11_linear)"/>
<path d="M47.0884 13.2227C45.2522 6.42971 38.0077 -0.809837 35.0651 0.00108444C32.1697 0.770875 31.6224 9.71454 33.6586 16.149C35.7125 22.6012 39.1259 24.5756 42.7982 23.8822C46.4116 23.1829 48.9657 19.9745 47.0884 13.2227Z" fill="url(#paint12_linear)"/>
<path d="M22.6747 0.541388C19.7616 -5.85786 11.4048 -11.834 8.62709 -10.5589C5.88465 -9.33073 6.82625 -0.410564 9.89237 5.6126C12.982 11.6475 16.672 13.0402 20.1854 11.765C23.6281 10.484 25.629 6.90538 22.6747 0.541388Z" fill="url(#paint13_linear)"/>
<path d="M-3.55895 -8.01939C-7.50784 -13.8663 -16.818 -18.4145 -19.378 -16.7045C-21.9086 -15.0415 -19.4722 -6.39754 -15.4115 -0.950248C-11.3272 4.50292 -7.43721 5.28446 -4.16511 3.45694C-0.963625 1.64118 0.42525 -2.21952 -3.55895 -8.01939V-8.01939Z" fill="url(#paint14_linear)"/>
<path d="M-38.0159 -18.793C-38.01 -19.0516 -37.757 -19.2514 -37.4509 -19.2455C7.43451 -17.9174 49.7364 0.522252 81.0803 31.7134C81.2922 31.925 81.3216 32.2482 81.1392 32.4303C80.9567 32.6125 80.6389 32.589 80.4212 32.3775C49.2421 1.35081 7.16967 -16.9949 -37.4745 -18.3112C-37.7805 -18.317 -38.0218 -18.5345 -38.0159 -18.793V-18.793Z" fill="#7CDBBF"/>
<path d="M86.3636 47.8934C81.6555 42.1581 77.9538 33.1381 79.8194 31.1225C81.7203 29.06 91.2717 33.1205 96.48 39.4433C101.671 45.7015 101.194 50.2791 98.2632 52.3828C95.2854 54.5335 91.1305 53.6345 86.3636 47.8934V47.8934Z" fill="url(#paint15_linear)"/>
<path d="M111.894 240.226C109.058 246.379 107.922 255.499 109.958 257.32C112.035 259.154 119.315 255.011 122.581 248.788C125.842 242.588 124.524 237.729 121.446 235.419C118.321 233.057 114.772 234.091 111.894 240.226Z" fill="url(#paint16_linear)"/>
<path d="M101.986 248.923C107.3 252.72 111.261 261.352 109.613 263.638C108.012 265.9 100.073 263.497 95.1414 259.648C90.1979 255.781 89.58 252.173 91.3514 249.2C93.111 246.285 96.7186 245.098 101.986 248.923V248.923Z" fill="url(#paint17_linear)"/>
<path d="M91.934 357.075C92.1459 357.187 92.4225 357.075 92.5578 356.828C112.043 320.243 116.587 277.886 105.864 238.474C105.793 238.204 105.546 238.04 105.317 238.104C105.087 238.169 104.958 238.433 105.034 238.704C115.704 277.904 111.184 320.037 91.8045 356.429C91.6633 356.669 91.7221 356.957 91.934 357.075Z" fill="#7CDBBF"/>
<path d="M95.2705 226.824C97.7246 233.223 103.286 240.322 105.758 239.752C108.282 239.17 109.395 229.65 106.699 222.587C104.045 215.559 100.149 213.849 97.1125 215.23C94.017 216.634 92.8341 220.378 95.2705 226.824Z" fill="url(#paint18_linear)"/>
<path d="M40.5563 53.4368C-2.65189 30.5605 -50.6682 18.2262 -99.5673 17.4329C-99.6497 17.4858 -97.6193 30.3137 -86.0846 40.462C-83.0832 35.0676 -78.7282 29.4969 -78.6164 29.3676C-80.7645 34.0862 -82.1475 39.2045 -82.9831 42.9947C-76.9039 47.537 -68.7707 51.3154 -57.3948 53.5719C-57.1947 53.613 -56.9888 53.6542 -56.7828 53.6953C-53.8108 47.7133 -47.7492 40.1505 -47.7257 40.1623C-50.1032 45.1747 -51.6392 50.6749 -52.5514 54.4945C-50.0503 54.9528 -47.1607 55.4758 -44.0181 56.0517C-41.7641 49.8405 -34.6196 42.7302 -34.5843 42.7537C-35.6083 47.8073 -34.8138 53.5895 -33.9546 57.9203C-17.3587 60.8644 1.83842 65.4302 11.3546 63.8554C14.3207 63.3206 17.4103 62.4745 20.4353 61.499C21.4298 59.266 22.3773 56.845 23.113 54.3828C23.113 54.3828 23.007 57.1858 22.6245 60.7703C32.1054 57.4914 40.5563 53.4426 40.5563 53.4368V53.4368Z" fill="url(#paint19_linear)"/>
<path d="M-46.4523 -9.71311C-55.7742 -11.1058 -63.6779 -10.7062 -70.1691 -9.29589C-70.4339 -3.91324 -70.2692 1.95714 -69.0392 6.38196C-69.0156 6.33496 -79.4322 2.10405 -81.8804 -5.07086C-97.6583 3.50847 -99.4886 17.5175 -99.5651 17.4352C-50.666 18.2285 -2.64967 30.5628 40.5585 53.439C40.6233 53.4861 38.0103 35.3931 29.2003 23.4172C28.1528 21.9717 26.6992 20.4439 24.9101 18.8749C16.877 23.7346 7.50796 27.9713 7.29021 28.0889C11.2862 23.4114 14.4112 17.823 16.6534 12.8106C15.8471 12.2994 15.0173 11.7881 14.164 11.2828C9.58541 17.4411 5.21279 23 5.21279 23C7.67275 18.7221 10.015 14.1856 12.0395 10.0487C-6.42199 -0.763568 -34.3996 -8.19703 -46.4523 -9.71311V-9.71311Z" fill="url(#paint20_linear)"/>
<path d="M-170.091 312.421C-170.185 313.637 -170.221 314.854 -170.197 316.058C-170.191 316.546 -170.168 317.028 -170.144 317.516C-169.561 327.799 -164.842 337.53 -157.103 344.552L-121.233 377.083C-105.232 391.592 -82.8861 394.759 -64.2245 387.067C-63.8008 386.891 -63.3829 386.715 -62.9651 386.527C-55.8736 383.389 -49.3588 378.658 -43.9799 372.359C-41.3021 369.227 -39.0952 366.036 -37.2532 362.828C-37.0119 362.405 -36.7765 361.981 -36.547 361.564C-31.3858 352.056 -29.3025 342.408 -27.6958 333.505C-27.6017 332.988 -27.5075 332.477 -27.4134 331.965C-25.895 323.38 -24.6768 315.565 -21.34 309.336C-21.1163 308.925 -20.8868 308.519 -20.6514 308.12C-20.4219 307.744 -20.1865 307.373 -19.9393 307.003C-14.2896 298.647 -7.95143 292.818 -1.53669 287.071C-1.14828 286.724 -0.759869 286.372 -0.371454 286.031C5.52539 280.754 11.4634 275.412 16.9483 268.114C17.2367 267.732 17.5251 267.344 17.8075 266.945C21.5328 261.797 25.0403 255.686 28.1712 247.994C28.4419 247.33 28.7008 246.672 28.9421 246.025C29.1481 245.485 29.3423 244.95 29.5306 244.427C32.6321 235.718 33.4207 228.831 33.6443 223.055C33.6678 222.456 33.6855 221.868 33.7031 221.292C33.8974 213.2 33.2912 207.336 37.3283 201.513C37.6226 201.078 37.9522 200.649 38.3111 200.214C40.6711 197.329 44.2727 194.408 49.7812 191.194C50.8405 190.577 51.8409 189.942 52.8002 189.296C53.2004 189.026 53.5947 188.749 53.9772 188.467C58.0497 185.535 61.1923 182.315 63.5581 178.959C63.87 178.525 64.1643 178.084 64.4409 177.643C66.3947 174.605 67.7365 171.473 68.584 168.376C68.7252 167.871 68.8488 167.36 68.9606 166.86C71.1616 156.994 68.4839 147.651 64.6528 142.726C64.3173 142.298 63.9818 141.904 63.6287 141.545C63.4757 141.381 63.3227 141.234 63.1638 141.087C58.4969 136.762 54.4068 135.34 50.0048 136.586C49.4693 136.733 48.9219 136.927 48.3687 137.162C44.6317 138.736 40.6004 142.133 35.7688 147.228C35.451 147.563 35.1273 147.903 34.8036 148.256C31.3079 152.017 27.3884 156.63 22.8746 162.03C19.2317 166.39 15.8831 169.986 12.764 172.96C12.4227 173.283 12.0873 173.6 11.7518 173.912C6.22572 179.018 1.41173 182.156 -3.07858 184.16C-3.57881 184.383 -4.07316 184.589 -4.56162 184.789C-9.66987 186.834 -14.4191 187.504 -19.4155 188.103C-19.8746 188.162 -20.3336 188.215 -20.7985 188.267C-26.7542 188.967 -33.1278 189.742 -40.949 192.722C-41.4669 192.916 -41.9907 193.127 -42.5204 193.345C-44.5625 194.179 -46.7046 195.172 -48.9586 196.347C-52.0365 197.952 -54.8437 199.615 -57.4155 201.325C-57.8686 201.618 -58.31 201.924 -58.7455 202.224C-66.9434 207.865 -72.7579 213.964 -77.7425 220.17C-78.0427 220.54 -78.3369 220.91 -78.6312 221.28C-82.4329 226.111 -85.7933 230.994 -89.4303 235.765C-89.754 236.188 -90.0776 236.606 -90.4013 237.023C-93.797 241.389 -97.4811 245.643 -102.018 249.668C-102.413 250.021 -102.819 250.374 -103.231 250.72C-103.496 250.95 -103.766 251.179 -104.043 251.402C-109.234 255.68 -117.12 259.823 -125.665 264.477C-126.077 264.706 -126.494 264.929 -126.912 265.158C-134.557 269.348 -142.637 273.961 -149.729 279.467C-150.105 279.761 -150.488 280.061 -150.859 280.36C-161.11 288.605 -169.044 298.806 -170.091 312.421V312.421Z" fill="url(#paint21_linear)"/>
<path d="M-118.247 339.323C-122.908 345.287 -127.463 351.246 -131.882 357.181C-131.665 349.406 -133.642 342.402 -137.797 336.343C-141.475 330.978 -146.86 326.336 -153.798 322.552C-159.554 319.414 -165.457 317.357 -170.188 316.053C-170.182 316.54 -170.159 317.022 -170.135 317.51C-165.568 318.797 -159.948 320.777 -154.469 323.768C-139.28 332.06 -132.188 343.982 -133.377 359.196C-134.389 360.571 -135.402 361.94 -136.402 363.309L-135.237 364.367C-132.871 361.118 -130.452 357.868 -128.004 354.601C-96.3188 355.206 -80.1584 365.777 -72.1723 374.545C-68.2117 378.893 -65.7341 383.277 -64.2157 387.055C-63.792 386.879 -63.3741 386.703 -62.9563 386.515C-64.5335 382.589 -67.0876 378.065 -71.1483 373.611C-76.4272 367.811 -83.3245 363.157 -91.6402 359.784C-101.492 355.788 -113.374 353.59 -126.974 353.238C-124.414 349.853 -121.819 346.456 -119.188 343.066C-88.2209 334.357 -65.9871 342.149 -52.7634 350.247C-45.9837 354.395 -40.8167 359.043 -37.2385 362.81C-36.9972 362.387 -36.7618 361.964 -36.5323 361.547C-40.1575 357.768 -45.3011 353.191 -51.9747 349.101C-60.5846 343.824 -70.0243 340.351 -80.0407 338.782C-91.8873 336.931 -104.57 337.765 -117.764 341.25C-111.161 332.771 -104.34 324.297 -97.4252 315.906C-97.3958 315.906 -97.3663 315.906 -97.331 315.9C-70.9365 311.604 -50.6271 319.214 -38.2449 326.354C-34.1371 328.722 -30.606 331.196 -27.6812 333.493C-27.587 332.976 -27.4928 332.465 -27.3987 331.954C-30.2471 329.756 -33.6192 327.423 -37.4975 325.184C-49.862 318.051 -69.989 310.458 -96.1128 314.319C-91.7284 309.013 -87.3029 303.748 -82.8655 298.535C-65.9753 289.927 -48.0729 291.525 -29.6527 303.289C-26.6277 305.223 -23.8382 307.279 -21.3253 309.324C-21.1017 308.913 -20.8721 308.507 -20.6367 308.108C-23.1379 306.075 -25.9098 304.036 -28.9053 302.126C-37.2032 296.825 -45.5953 293.511 -53.8344 292.289C-63.0152 290.926 -72.0252 292.166 -80.6704 295.962C-69.8301 283.281 -58.9486 270.958 -48.3966 259.282C-21.0546 269.689 -8.17803 279.714 -2.18702 286.307C-1.9575 286.566 -1.72798 286.812 -1.51612 287.065C-1.12771 286.718 -0.739291 286.366 -0.350873 286.025C-0.509772 285.849 -0.662784 285.666 -0.833451 285.478C-9.45508 275.865 -25.4978 266.392 -47.2726 258.042C-42.3821 252.636 -37.5622 247.377 -32.8659 242.288C-7.5601 246.196 6.36987 256.297 13.6144 264.106C14.8797 265.47 15.992 266.815 16.963 268.108C17.2514 267.726 17.5397 267.338 17.8222 266.939C16.8865 265.717 15.8272 264.453 14.6325 263.166C7.32914 255.286 -6.61848 245.138 -31.736 241.066C-28.0107 237.035 -24.3561 233.121 -20.8015 229.331C1.43819 229.76 15.1681 235.942 22.7834 241.072C25.3198 242.782 27.3561 244.486 28.9568 246.019C29.1628 245.479 29.357 244.944 29.5453 244.421C27.9622 242.958 26.0201 241.371 23.6543 239.779C16.0332 234.643 2.43277 228.467 -19.3656 227.803C-18.4357 226.816 -17.5059 225.834 -16.5878 224.859C-12.3976 220.428 -8.27808 216.097 -4.24092 211.884C8.75333 208.711 20.1822 213.688 27.5091 218.454C29.8337 219.964 31.8993 221.551 33.6707 223.043C33.6943 222.444 33.7119 221.856 33.7296 221.28C32.1288 219.982 30.3163 218.624 28.3036 217.314C21.1238 212.636 10.1128 207.765 -2.52248 210.092C2.05611 205.32 6.52877 200.702 10.8543 196.271C23.466 195.977 31.9758 198.68 37.3607 201.501C37.6549 201.066 37.9845 200.637 38.3435 200.202C33.0057 197.358 24.6783 194.643 12.4021 194.696C18.4931 188.456 24.2899 182.591 29.6865 177.173C36.6074 175.528 46.2354 183.02 52.8384 189.29C53.2386 189.02 53.6329 188.743 54.0154 188.461C47.7655 182.485 38.6613 175.299 31.2873 175.563C33.2117 173.636 35.0832 171.767 36.8958 169.963C48.7248 169.134 58.0526 174.541 63.5963 178.954C63.9083 178.519 64.2025 178.078 64.4791 177.637C63.5081 176.868 62.4252 176.068 61.2423 175.275C56.2106 171.92 48.3069 168.112 38.5436 168.318C41.4567 165.426 44.205 162.7 46.7945 160.155C55.1748 158.681 63.8906 164.492 68.6281 168.37C68.7693 167.865 68.8929 167.354 69.0047 166.854C64.3614 163.111 56.4872 158.04 48.4129 158.569C55.3219 151.776 60.8774 146.393 64.6968 142.721C64.3614 142.292 64.026 141.898 63.6729 141.539C61.4777 143.649 58.7059 146.329 55.4279 149.519C55.1807 142.856 52.4736 138.848 50.0548 136.58C49.5193 136.727 48.9719 136.921 48.4187 137.156C50.8669 139.177 54.0213 143.291 53.8742 151.035C50.0783 154.738 45.6822 159.057 40.7799 163.91C41.7863 157.593 38.367 151.047 35.8247 147.222C35.5069 147.557 35.1832 147.898 34.8595 148.25C37.5608 152.369 41.1154 159.474 38.879 165.797C37.961 166.707 37.0252 167.636 36.0777 168.582C36.0306 168.617 35.9895 168.664 35.9542 168.705C30.2574 174.376 24.0075 180.658 17.3161 187.457C18.5932 180.852 15.8095 176.045 12.814 172.948C12.4727 173.271 12.1373 173.589 11.8018 173.9C16.0979 178.313 17.2867 183.537 15.3623 189.449C13.5968 191.241 11.8077 193.074 9.98921 194.937C9.97744 194.949 9.95977 194.961 9.948 194.978C7.08197 197.916 4.1571 200.931 1.17336 204.022C2.05612 195.219 -0.533312 188.45 -3.02858 184.154C-3.52882 184.377 -4.02316 184.583 -4.51162 184.783C-1.66325 189.613 0.820248 196.741 -0.645133 205.908C-5.58271 211.032 -10.6674 216.35 -15.8522 221.833C-12.6271 210.133 -16.2582 196.383 -19.3656 188.097C-19.8246 188.156 -20.2836 188.209 -20.7485 188.262C-17.4823 196.894 -13.4157 212.219 -18.1061 224.213C-21.0428 227.321 -24.0442 230.524 -27.1103 233.808C-27.3634 210.873 -35.2435 198.604 -40.9285 192.728C-41.4464 192.921 -41.9701 193.133 -42.4998 193.35C-36.8678 198.933 -28.5404 211.302 -28.6993 235.489C-32.1244 239.173 -35.6201 242.952 -39.1747 246.824C-37.9153 228.108 -45.6542 214.611 -52.528 206.49C-54.164 204.556 -55.8118 202.841 -57.4008 201.33C-57.8539 201.624 -58.2953 201.93 -58.7308 202.229C-57.083 203.769 -55.3704 205.538 -53.6814 207.536C-46.7723 215.715 -38.9629 229.489 -40.8932 248.705C-43.6003 251.661 -46.331 254.663 -49.0911 257.719C-49.1793 257.784 -49.2559 257.866 -49.3147 257.966C-50.886 259.705 -52.4691 261.456 -54.0522 263.225C-51.3627 246.619 -58.6779 235.436 -65.4987 228.878C-69.8595 224.689 -74.4675 221.868 -77.722 220.181C-78.0221 220.552 -78.3163 220.922 -78.6106 221.292C-75.4091 222.937 -70.7423 225.746 -66.4285 229.913C-56.4651 239.508 -52.8987 251.378 -55.8295 265.211C-59.3252 269.113 -62.8445 273.08 -66.3814 277.099C-65.0808 261.303 -72.702 250.174 -79.5228 243.516C-82.9773 240.143 -86.5201 237.581 -89.4097 235.771C-89.7334 236.194 -90.0571 236.611 -90.3808 237.029C-87.5206 238.809 -83.9837 241.342 -80.5821 244.668C-70.601 254.428 -66.4285 266.022 -68.1646 279.132C-70.9129 282.264 -73.6612 285.42 -76.4155 288.61C-79.5993 271.781 -89.3921 260.275 -97.1662 253.529C-98.8199 252.09 -100.444 250.808 -101.998 249.674C-102.392 250.027 -102.798 250.38 -103.21 250.726C-101.586 251.901 -99.8793 253.235 -98.1491 254.74C-90.3808 261.48 -80.5762 273.091 -77.7337 290.138C-87.2911 301.233 -96.8543 312.627 -106.153 324.121C-103.881 316.329 -103.705 308.167 -105.658 299.799C-107.471 292.019 -111.114 284.056 -116.475 276.123C-119.471 271.693 -122.684 267.767 -125.65 264.488C-126.062 264.718 -126.48 264.941 -126.898 265.17C-123.902 268.461 -120.642 272.433 -117.605 276.928C-109.39 289.081 -101.198 307.655 -108.654 327.229C-111.496 330.761 -114.304 334.293 -117.075 337.836C-121.148 312.956 -132.4 296.667 -141.216 287.324C-144.212 284.15 -147.113 281.559 -149.708 279.479C-150.085 279.773 -150.467 280.072 -150.838 280.372C-148.202 282.458 -145.23 285.091 -142.181 288.323C-133.371 297.678 -122.084 314.102 -118.247 339.323V339.323Z" fill="#A6D7F7"/>
<path d="M360.231 -49.5031C359.101 -50.3845 357.935 -51.2013 356.741 -51.9594C356.258 -52.2649 355.776 -52.5588 355.281 -52.8467C344.835 -58.9404 332.253 -60.6386 320.365 -57.63L265.287 -43.6915C240.716 -37.4744 223.144 -17.7125 218.583 5.48693C218.483 6.00991 218.383 6.53877 218.294 7.06764C216.776 16.0231 217.188 25.4486 219.866 34.7742C221.196 39.4106 222.891 43.6356 224.844 47.5139C225.097 48.0252 225.362 48.5246 225.627 49.0241C231.589 60.2243 239.687 68.5039 247.361 75.8375C247.802 76.2606 248.249 76.6837 248.685 77.1068C256.106 84.1524 262.968 90.4047 266.905 97.6913C267.164 98.1731 267.411 98.6609 267.652 99.1545C267.87 99.6246 268.082 100.095 268.282 100.571C272.808 111.495 274.403 121.461 275.868 131.445C275.956 132.044 276.05 132.655 276.133 133.254C277.48 142.433 278.863 151.682 282.453 161.76C282.636 162.289 282.836 162.818 283.042 163.358C285.661 170.328 289.374 177.714 294.883 185.747C295.359 186.446 295.836 187.122 296.307 187.774C296.701 188.327 297.101 188.861 297.496 189.384C304.01 198.052 310.243 203.282 315.751 207.242C316.322 207.654 316.887 208.053 317.44 208.441C325.232 213.871 331.37 217.085 334.454 224.795C334.689 225.365 334.895 225.964 335.089 226.593C336.39 230.765 336.914 236.171 336.484 243.628C336.402 245.056 336.372 246.449 336.384 247.806C336.39 248.376 336.402 248.94 336.431 249.493C336.661 255.369 337.779 260.522 339.533 265C339.756 265.588 339.992 266.158 340.245 266.716C341.957 270.594 344.153 273.926 346.63 276.758C347.036 277.223 347.448 277.675 347.872 278.11C356.105 286.648 366.987 290.086 374.29 289.539C374.926 289.492 375.532 289.416 376.108 289.304C376.367 289.257 376.615 289.204 376.856 289.146C384.112 287.389 388.155 284.321 389.785 279.221C389.991 278.598 390.156 277.94 390.28 277.252C391.162 272.586 390.445 266.446 388.585 258.436C388.461 257.907 388.338 257.373 388.202 256.826V256.82C386.784 250.968 384.807 244.163 382.447 236.253C380.534 229.872 379.186 224.272 378.298 219.306C378.204 218.766 378.115 218.231 378.027 217.702C376.609 208.999 376.656 202.271 377.597 196.589C377.703 195.96 377.821 195.343 377.945 194.738C379.251 188.427 381.676 183.361 384.324 178.09C384.565 177.608 384.807 177.121 385.054 176.633C388.226 170.369 391.598 163.646 393.746 154.08C393.887 153.451 394.029 152.799 394.158 152.147C394.658 149.614 395.082 146.876 395.388 143.914C395.812 139.871 396 136.052 396 132.438C396 131.803 395.994 131.174 395.982 130.557C395.765 118.905 393.564 109.273 390.715 100.389C390.545 99.8596 390.374 99.3249 390.203 98.8019C387.937 91.9561 385.33 85.5216 383.018 78.8814C382.812 78.2938 382.617 77.7061 382.417 77.1244C380.34 70.9837 378.563 64.6315 377.568 57.5976C377.48 56.9806 377.397 56.3636 377.327 55.7289C377.274 55.3176 377.227 54.9063 377.185 54.489C376.362 46.6501 377.415 36.2668 378.386 24.9197C378.433 24.3673 378.48 23.815 378.527 23.2567C379.381 13.0849 380.093 2.2021 379.298 -8.28115C379.257 -8.83939 379.21 -9.40351 379.157 -9.96176C377.727 -25.3105 372.883 -39.6662 360.231 -49.5031V-49.5031Z" fill="url(#paint22_linear)"/>
<path d="M300.316 -16.3397C297.497 -24.7486 294.613 -33.0576 291.665 -41.2139C299.133 -35.9664 307.272 -33.3632 315.894 -33.4924C323.532 -33.61 331.565 -35.8547 339.763 -40.1796C346.561 -43.7642 352.399 -48.1948 356.742 -51.9615C356.259 -52.2671 355.777 -52.5609 355.282 -52.8488C351.063 -49.2232 345.484 -45.0217 339.004 -41.6134C321.049 -32.1585 304.783 -32.9577 290.658 -43.9757C289.97 -45.8561 289.281 -47.7247 288.593 -49.5875L286.804 -49.135C288.451 -44.722 290.07 -40.256 291.676 -35.7489C270.561 -5.2159 249.739 3.71014 235.986 5.82559C229.165 6.87157 223.263 6.45435 218.578 5.49065C218.478 6.01363 218.378 6.54249 218.29 7.07136C223.157 8.0762 229.242 8.51104 236.233 7.43568C245.332 6.03713 254.353 2.32334 263.046 -3.61168C273.339 -10.6397 283.184 -20.8174 292.342 -33.8627C294.001 -29.1734 295.637 -24.443 297.256 -19.6715C285.721 16.1913 263.687 32.8505 247.203 40.5073C238.752 44.4385 230.854 46.4658 224.846 47.5176C225.099 48.0289 225.363 48.5284 225.628 49.0278C231.672 47.9349 239.488 45.884 247.821 42.0175C258.567 37.0344 268.077 30.0652 276.099 21.3095C285.585 10.9438 292.983 -1.9722 298.121 -17.1094C302.14 -5.17477 306.024 6.97146 309.755 19.1647C309.738 19.1941 309.714 19.2235 309.697 19.2587C296.802 47.8056 276.205 62.696 261.186 70.1589C256.207 72.6328 251.499 74.4779 247.356 75.8471C247.797 76.2702 248.245 76.6933 248.68 77.1164C252.676 75.7648 257.143 73.9784 261.851 71.6456C276.846 64.2003 297.314 49.4744 310.456 21.4682C312.81 29.1837 315.099 36.911 317.33 44.6206C314.817 66.6801 301.658 83.1219 278.206 93.4759C274.357 95.1741 270.531 96.5609 266.9 97.695C267.159 98.1769 267.406 98.6646 267.648 99.1582C271.255 98.03 275.051 96.649 278.865 94.9626C289.434 90.2968 298.109 84.256 304.641 77.0047C311.927 68.9249 316.547 59.3289 318.424 48.4343C323.815 67.2266 328.835 85.8367 333.425 103.695C305.524 123.639 287.369 129.715 277.034 131.29C276.634 131.348 276.24 131.407 275.857 131.454C275.946 132.053 276.04 132.665 276.122 133.264C276.399 133.229 276.681 133.188 276.964 133.146C291.959 130.961 311.627 121.435 333.908 105.593C336.026 113.866 338.063 121.976 339.999 129.862C319.784 152.033 300.869 159.084 288.528 161.094C286.374 161.447 284.338 161.658 282.443 161.77C282.625 162.299 282.825 162.827 283.031 163.368C284.838 163.245 286.757 163.033 288.793 162.704C301.234 160.677 320.207 153.643 340.464 131.76C341.994 138.006 343.465 144.106 344.866 150.029C330.041 171.46 315.093 180.856 305.142 184.963C301.828 186.332 298.839 187.214 296.296 187.784C296.691 188.336 297.091 188.871 297.485 189.394C299.939 188.801 302.752 187.925 305.848 186.65C315.811 182.536 330.665 173.264 345.437 152.415C345.801 153.966 346.16 155.506 346.519 157.033C348.15 163.991 349.715 170.819 351.222 177.483C345.907 192.22 333.631 200.148 324.221 204.214C321.237 205.501 318.348 206.5 315.741 207.252C316.311 207.663 316.876 208.063 317.43 208.451C319.737 207.734 322.238 206.841 324.827 205.724C334.055 201.746 345.96 194.16 351.863 180.315C353.57 187.878 355.194 195.235 356.73 202.322C348.844 214.821 340.687 221.373 334.443 224.804C334.679 225.374 334.885 225.974 335.079 226.602C341.317 223.235 349.374 216.866 357.271 204.849C359.431 214.838 361.42 224.293 363.233 233.066C360.355 240.888 346.79 245.43 336.374 247.81C336.379 248.38 336.391 248.944 336.421 249.496C346.325 247.269 359.255 243.038 363.769 235.67C364.41 238.796 365.028 241.834 365.622 244.772C358.772 256.853 347.438 262.459 339.522 265.004C339.746 265.591 339.981 266.161 340.234 266.72C341.617 266.267 343.1 265.732 344.642 265.086C351.192 262.348 360.037 257.1 366.158 247.44C367.105 252.158 367.988 256.607 368.806 260.779C364.822 269.911 353.487 274.659 346.619 276.762C347.026 277.226 347.438 277.679 347.861 278.114C354.529 276.004 364.598 271.603 369.312 263.382C371.484 274.523 373.155 283.438 374.273 289.543C374.909 289.496 375.515 289.42 376.092 289.308C375.45 285.8 374.627 281.357 373.62 276.086C380.306 280.159 385.979 280.118 389.769 279.224C389.975 278.601 390.14 277.943 390.263 277.256C386.703 278.337 380.629 278.748 373.144 273.589C371.978 267.484 370.601 260.397 369.018 252.464C374.55 257.541 383.178 258.44 388.568 258.44C388.445 257.911 388.321 257.376 388.186 256.83V256.824C382.407 256.789 373.149 255.661 368.406 249.385C368.112 247.898 367.806 246.382 367.494 244.842C367.488 244.772 367.47 244.707 367.453 244.637C365.593 235.405 363.486 225.233 361.167 214.303C366.805 219.833 373.314 220.227 378.281 219.31C378.187 218.769 378.099 218.235 378.01 217.706C370.907 219.04 365.022 216.819 360.485 211.113C359.873 208.227 359.237 205.295 358.59 202.316C358.584 202.298 358.584 202.269 358.578 202.251C357.56 197.556 356.501 192.743 355.412 187.831C363.457 194.395 371.761 196.252 377.587 196.598C377.693 195.97 377.81 195.353 377.934 194.747C371.36 194.401 362.774 192.209 354.753 184.84C352.934 176.701 351.022 168.292 349.015 159.678C358.378 170.408 374.191 175.767 384.319 178.106C384.561 177.624 384.802 177.136 385.049 176.648C374.485 174.239 356.842 168.286 348.144 155.94C347.002 151.063 345.813 146.057 344.583 140.938C367.188 155.582 384.302 155.841 393.741 154.095C393.883 153.467 394.024 152.814 394.153 152.162C385.043 154.042 367.541 154.16 343.959 138.341C342.571 132.612 341.135 126.753 339.646 120.777C357.154 134.128 375.38 135.315 387.786 133.869C390.734 133.528 393.482 133.029 395.989 132.453C395.989 131.818 395.983 131.19 395.972 130.573C393.4 131.184 390.552 131.707 387.509 132.059C375.021 133.505 356.483 132.2 338.922 117.868C337.78 113.314 336.609 108.695 335.408 104.03C335.403 103.9 335.373 103.771 335.314 103.654C334.632 100.992 333.937 98.312 333.237 95.6207C347.749 109.001 363.433 109.107 374.279 106.697C381.2 105.158 386.95 102.484 390.716 100.398C390.546 99.8692 390.375 99.3345 390.204 98.8115C386.52 100.874 380.747 103.601 373.873 105.123C358.031 108.631 344.095 104.417 332.448 92.6003C330.889 86.6594 329.288 80.6539 327.646 74.5954C342.265 86.0953 358.095 85.8661 369.036 83.5215C374.579 82.3345 379.376 80.5363 383.025 78.891C382.819 78.3034 382.624 77.7157 382.424 77.134C378.829 78.7735 374.056 80.5775 368.6 81.7468C352.581 85.1609 338.528 81.7292 326.816 71.5398C325.527 66.8329 324.221 62.1025 322.885 57.3486C341.429 65.1405 359.025 63.0368 370.672 59.8225C373.149 59.135 375.456 58.3828 377.575 57.6013C377.487 56.9843 377.404 56.3673 377.334 55.7326C375.133 56.5553 372.714 57.3604 370.124 58.0714C358.496 61.2857 340.776 63.3365 322.244 55.0686C317.577 38.5505 312.616 21.8384 307.39 5.32023C313.545 12.5892 321.425 18.0423 330.883 21.5563C339.675 24.8235 349.827 26.4278 361.067 26.3337C367.341 26.2808 373.267 25.6873 378.405 24.9176C378.452 24.3652 378.499 23.8128 378.546 23.2546C373.385 24.0479 367.382 24.6531 361.014 24.706C343.795 24.8529 320.307 20.8159 305.977 0.860155C304.359 -4.19931 302.717 -9.22938 301.051 -14.2301C328.046 -2.08973 351.28 -2.51282 366.14 -5.07487C371.19 -5.94455 375.609 -7.0963 379.323 -8.28331C379.282 -8.84155 379.235 -9.40567 379.182 -9.96392C375.427 -8.74165 370.925 -7.54877 365.787 -6.66734C350.886 -4.12292 327.487 -3.74684 300.316 -16.3397V-16.3397Z" fill="#A6D7F7"/>
<path d="M163.716 131.13C233.79 198.942 286.791 282.349 318.393 374.53C318.34 374.718 292.711 378.767 266.322 363.148C274.726 354.14 282.642 342.458 282.818 342.164C275.173 349.145 266.293 354.904 259.607 358.823C247.237 350.091 235.049 337.004 223.75 316.831C223.555 316.479 223.349 316.114 223.143 315.744C232.683 306.436 243.335 290.288 243.294 290.253C235.226 297.839 225.715 304.144 219.018 308.223C216.605 303.763 213.833 298.609 210.808 293.009C221.231 284.917 230.347 266.995 230.282 266.942C221.301 271.99 209.826 274.046 201.069 275.075C185.261 245.429 164.764 211.858 161.903 192.854C161.097 186.907 160.809 180.531 160.797 174.191C164.434 170.936 168.454 167.645 172.673 164.736C172.673 164.736 167.406 166.658 160.826 169.596C161.209 149.646 163.704 131.13 163.716 131.13V131.13Z" fill="url(#paint23_linear)"/>
<path d="M337.309 257.164C345.696 273.97 349.792 289.196 351.116 302.37C341.046 306.184 329.788 309.492 320.619 309.874C320.696 309.804 335.15 326.939 350.298 327.162C343.701 362.349 318.195 374.443 318.395 374.531C286.792 282.344 233.785 198.942 163.717 131.13C163.594 131.036 199.587 124.854 227.776 134.186C231.166 135.285 234.968 137.089 239.052 139.516C234.756 157.726 232.473 178.093 232.373 178.575C238.799 168.121 247.509 158.76 255.66 151.427C257.125 152.637 258.608 153.901 260.097 155.205C251.205 167.681 243.337 179.386 243.331 179.38C249.951 172.082 257.125 164.854 263.746 158.472C295.661 186.808 327.011 235.263 337.309 257.164V257.164Z" fill="url(#paint24_linear)"/>
<path d="M34.3285 241.38C32.5748 249.777 26.8486 259.913 23.4058 260.231C19.9101 260.536 15.6257 250.84 16.991 242.055C18.3505 233.3 23.3528 229.345 28.2316 229.304C33.1986 229.251 36.0234 232.971 34.3285 241.38Z" fill="url(#paint25_linear)"/>
<path d="M-33.4794 375.3C-33.7795 375.259 -33.9796 374.936 -33.9267 374.577C-26.1643 322.69 1.15425 276.174 41.7907 244.13C42.0673 243.913 42.4439 243.925 42.6322 244.166C42.8206 244.401 42.7441 244.771 42.4675 244.988C2.05467 276.861 -25.1226 323.131 -32.8438 374.742C-32.8968 375.094 -33.1793 375.347 -33.4794 375.3Z" fill="#C9A22D"/>
<path d="M61.353 240.248C54.0261 244.914 43.0151 247.964 40.9318 245.519C38.7955 243.028 44.8454 232.509 52.9197 227.344C60.9234 222.191 66.1788 223.378 68.2209 227.068C70.316 230.811 68.6976 235.512 61.353 240.248V240.248Z" fill="url(#paint26_linear)"/>
<path d="M-124.875 -2.69329C-89.2584 58.9663 -39.5296 111.336 20.2393 150.136C20.3864 150.131 27.8251 132.725 21.4516 111.271C13.5597 115.608 3.86107 119.127 3.61978 119.198C9.93446 115.032 15.6077 109.784 19.5801 105.747C15.59 95.4402 8.48085 84.481 -3.81895 72.893C-4.0367 72.6932 -4.25444 72.4817 -4.48396 72.2701C-12.7878 77.359 -26.1469 82.013 -26.1646 81.9777C-19.3438 77.6234 -13.1762 72.0175 -9.08608 68.0099C-11.8168 65.5066 -14.9829 62.6272 -18.4198 59.4893C-26.0175 65.4125 -40.3594 68.668 -40.3888 68.6092C-35.204 63.1561 -31.7024 55.4053 -29.4072 49.3939C-47.6215 32.9227 -67.7838 12.4381 -80.7604 7.02604C-84.8329 5.39244 -89.3055 4.05265 -93.8017 2.91266C-96.7619 4.90471 -99.8104 7.16119 -102.629 9.62922C-102.629 9.62922 -100.328 6.2445 -97.0679 2.11937C-111.292 -1.16546 -124.869 -2.70504 -124.875 -2.69329V-2.69329Z" fill="url(#paint27_linear)"/>
<path d="M-66.4076 142.586C-55.9793 151.518 -45.904 157.129 -36.7939 160.414C-32.2919 153.974 -27.9369 146.593 -26.0301 140.182C-26.0949 140.223 -16.514 153.504 -19.0563 164.257C7.08515 165.867 20.2147 149.978 20.2442 150.137C-39.5305 111.336 -89.2594 58.9666 -124.876 -2.69302C-124.917 -2.79879 -135.722 21.5583 -134.133 43.1653C-133.957 45.7626 -133.356 48.7713 -132.362 52.0972C-118.673 52.3088 -103.813 54.3243 -103.46 54.3361C-112.023 57.0156 -120.215 61.511 -126.871 65.9652C-126.276 67.2168 -125.641 68.492 -124.982 69.7789C-114.542 65.7125 -104.837 62.2338 -104.837 62.2279C-111.193 65.6067 -117.608 69.3969 -123.31 72.9403C-108.904 100.57 -80.114 131.391 -66.4076 142.586V142.586Z" fill="url(#paint28_linear)"/>
<path d="M178.703 198.134C173.872 255.592 155.487 311.094 125.061 360.096C124.955 360.143 113.491 349.942 110.76 332.019C118.04 332.483 126.367 331.725 126.568 331.696C120.5 330.814 114.533 328.916 110.225 327.324C109.589 318.398 111.025 307.915 116.039 295.192C116.127 294.969 116.216 294.74 116.31 294.505C124.155 295.375 135.554 294.199 135.554 294.164C129.051 293.318 122.595 291.332 118.217 289.798C119.358 287.024 120.682 283.828 122.118 280.343C129.74 282.077 141.374 279.526 141.374 279.479C135.689 277.264 130.452 272.786 126.691 269.172C134.359 250.833 142.075 228.879 149.719 220.446C152.144 217.849 154.957 215.328 157.864 212.948C160.719 213.389 163.738 213.994 166.651 214.835C166.651 214.835 163.797 213.148 159.983 211.238C169.276 203.928 178.698 198.128 178.703 198.134Z" fill="url(#paint29_linear)"/>
<path d="M185.972 324.752C181.405 334.889 175.962 342.469 170.412 348.011C164.892 344.838 159.154 340.924 155.541 336.881C155.599 336.887 153.163 349.92 158.736 356.931C140.128 367.103 125.021 359.975 125.056 360.098C155.488 311.096 173.867 255.595 178.704 198.143C178.698 198.054 195.024 212.193 201.315 228.576C202.08 230.538 202.68 232.954 203.098 235.733C193.134 240.599 182.941 247.186 182.683 247.321C189.886 246.34 197.442 246.816 203.857 247.791C203.851 248.913 203.828 250.065 203.786 251.235C194.729 251.846 186.414 252.633 186.414 252.633C192.24 252.927 198.249 253.497 203.651 254.132C202.627 279.335 192.158 311.836 185.972 324.752V324.752Z" fill="url(#paint30_linear)"/>
<path d="M183.913 89.4011C190.004 83.5836 200.267 78.5653 203.227 80.2165C206.223 81.9088 204.298 92.1218 198.307 98.4682C192.34 104.797 186.09 105.22 182.123 102.546C178.086 99.8373 177.863 95.2597 183.913 89.4011V89.4011Z" fill="url(#paint31_linear)"/>
<path d="M217.529 83.6952C222.531 76.9728 231.783 70.3679 234.972 71.5196C238.197 72.7066 237.974 83.09 233.13 90.3178C228.31 97.5221 222.261 98.95 217.941 96.9462C213.539 94.9306 212.568 90.4529 217.529 83.6952V83.6952Z" fill="url(#paint32_linear)"/>
<path d="M249.613 72.6435C253.439 65.2042 261.507 57.1772 264.85 57.7942C268.228 58.4347 269.693 68.73 266.08 76.6453C262.49 84.5371 256.764 86.9228 252.179 85.6536C247.518 84.3725 245.829 80.1123 249.613 72.6435V72.6435Z" fill="url(#paint33_linear)"/>
<path d="M190.135 74.2651C196.75 78.9603 208.502 80.112 210.527 77.2562C212.539 74.4649 206.501 66.1324 199.981 61.9074C193.436 57.6765 188.934 58.411 186.157 61.6958C183.438 64.9278 183.502 69.6347 190.135 74.2651V74.2651Z" fill="url(#paint34_linear)"/>
<path d="M221.132 67.7613C228.389 71.3223 240.135 70.5642 241.66 67.4204C243.19 64.3413 235.875 57.1017 228.771 53.9814C221.645 50.867 217.354 52.3126 215.165 55.997C213.041 59.6344 213.876 64.2649 221.132 67.7613Z" fill="url(#paint35_linear)"/>
<path d="M250.567 56.3419C258.305 58.6807 269.793 56.0129 270.799 52.6516C271.812 49.3551 263.396 43.4142 255.875 41.4985C248.318 39.5887 244.322 41.7159 242.769 45.7059C241.256 49.6312 242.834 54.0678 250.567 56.3419Z" fill="url(#paint36_linear)"/>
<path d="M313.234 18.7107C313.451 18.9105 313.434 19.2807 313.192 19.5393C278.058 57.1943 230.095 79.6593 179.413 83.0381C179.066 83.0616 178.771 82.8383 178.754 82.5445C178.736 82.2507 179.001 81.9921 179.342 81.9686C229.754 78.6074 277.464 56.2659 312.41 18.8106C312.645 18.552 313.016 18.5109 313.234 18.7107V18.7107Z" fill="#C9A22D"/>
<path d="M161.425 75.3323C169.947 75.6202 180.54 79.2635 180.869 82.3956C181.211 85.5922 170.465 90.7457 161.066 90.4461C151.732 90.1757 148.137 86.3033 148.537 82.184C148.937 77.9942 152.862 75.0914 161.425 75.3323V75.3323Z" fill="url(#paint37_linear)"/>
<g filter="url(#filter0_d)">
<path d="M55.6383 113.928C55.3823 114.397 54.9876 114.632 54.4543 114.632C54.1343 114.632 53.7716 114.515 53.3663 114.28C52.9609 114.045 52.4596 113.789 51.8623 113.512C51.2863 113.213 50.5929 112.947 49.7823 112.712C48.9716 112.456 48.0116 112.328 46.9023 112.328C45.9423 112.328 45.0783 112.456 44.3103 112.712C43.5423 112.947 42.8809 113.277 42.3263 113.704C41.7929 114.131 41.3769 114.632 41.0783 115.208C40.8009 115.763 40.6623 116.371 40.6623 117.032C40.6623 117.864 40.8969 118.557 41.3663 119.112C41.8569 119.667 42.4969 120.147 43.2863 120.552C44.0756 120.957 44.9716 121.32 45.9743 121.64C46.9769 121.939 48.0009 122.269 49.0463 122.632C50.1129 122.973 51.1476 123.357 52.1503 123.784C53.1529 124.211 54.0489 124.744 54.8383 125.384C55.6276 126.024 56.2569 126.813 56.7263 127.752C57.2169 128.669 57.4623 129.779 57.4623 131.08C57.4623 132.573 57.1956 133.96 56.6623 135.24C56.1289 136.499 55.3396 137.597 54.2943 138.536C53.2489 139.453 51.9689 140.179 50.4543 140.712C48.9396 141.245 47.1903 141.512 45.2063 141.512C42.9449 141.512 40.8969 141.149 39.0623 140.424C37.2276 139.677 35.6703 138.728 34.3903 137.576L35.7343 135.4C35.9049 135.123 36.1076 134.909 36.3423 134.76C36.5769 134.611 36.8863 134.536 37.2703 134.536C37.6543 134.536 38.0596 134.685 38.4863 134.984C38.9129 135.283 39.4249 135.613 40.0223 135.976C40.6409 136.339 41.3769 136.669 42.2303 136.968C43.1049 137.267 44.1929 137.416 45.4943 137.416C46.6036 137.416 47.5743 137.277 48.4062 137C49.2383 136.701 49.9316 136.307 50.4862 135.816C51.0409 135.325 51.4463 134.76 51.7023 134.12C51.9796 133.48 52.1183 132.797 52.1183 132.072C52.1183 131.176 51.8729 130.44 51.3823 129.864C50.9129 129.267 50.2836 128.765 49.4943 128.36C48.7049 127.933 47.7983 127.571 46.7743 127.272C45.7716 126.952 44.7369 126.621 43.6703 126.28C42.6249 125.939 41.5903 125.555 40.5663 125.128C39.5636 124.68 38.6676 124.125 37.8783 123.464C37.0889 122.803 36.4489 121.992 35.9583 121.032C35.4889 120.051 35.2543 118.867 35.2543 117.48C35.2543 116.243 35.5103 115.059 36.0223 113.928C36.5343 112.776 37.2809 111.773 38.2623 110.92C39.2436 110.045 40.4489 109.352 41.8783 108.84C43.3076 108.328 44.9396 108.072 46.7743 108.072C48.9076 108.072 50.8169 108.413 52.5023 109.096C54.2089 109.757 55.6809 110.675 56.9183 111.848L55.6383 113.928ZM65.0203 141V93.864H70.7483V113.256C72.0923 111.699 73.6283 110.451 75.3563 109.512C77.1056 108.552 79.1003 108.072 81.3403 108.072C83.2176 108.072 84.9136 108.424 86.4283 109.128C87.9429 109.832 89.2336 110.888 90.3003 112.296C91.3669 113.683 92.1883 115.411 92.7643 117.48C93.3403 119.528 93.6283 121.896 93.6283 124.584C93.6283 126.973 93.3083 129.203 92.6683 131.272C92.0283 133.32 91.1003 135.101 89.8843 136.616C88.6896 138.109 87.2176 139.293 85.4683 140.168C83.7403 141.021 81.7883 141.448 79.6123 141.448C77.5216 141.448 75.7403 141.043 74.2683 140.232C72.8176 139.421 71.5483 138.291 70.4603 136.84L70.1723 139.784C70.0016 140.595 69.5109 141 68.7003 141H65.0203ZM79.4843 112.616C77.6283 112.616 75.9963 113.043 74.5883 113.896C73.2016 114.749 71.9216 115.955 70.7483 117.512V133.192C71.7723 134.6 72.9029 135.592 74.1403 136.168C75.3989 136.744 76.7963 137.032 78.3323 137.032C81.3616 137.032 83.6869 135.955 85.3083 133.8C86.9296 131.645 87.7403 128.573 87.7403 124.584C87.7403 122.472 87.5483 120.659 87.1643 119.144C86.8016 117.629 86.2683 116.392 85.5643 115.432C84.8603 114.451 83.9963 113.736 82.9723 113.288C81.9483 112.84 80.7856 112.616 79.4843 112.616ZM124.386 141H121.858C121.304 141 120.856 140.915 120.514 140.744C120.173 140.573 119.949 140.211 119.842 139.656L119.202 136.648C118.349 137.416 117.517 138.109 116.706 138.728C115.896 139.325 115.042 139.837 114.146 140.264C113.25 140.669 112.29 140.979 111.266 141.192C110.264 141.405 109.144 141.512 107.906 141.512C106.648 141.512 105.464 141.341 104.354 141C103.266 140.637 102.317 140.104 101.506 139.4C100.696 138.696 100.045 137.811 99.5543 136.744C99.0849 135.656 98.8503 134.376 98.8503 132.904C98.8503 131.624 99.2023 130.397 99.9062 129.224C100.61 128.029 101.741 126.973 103.298 126.056C104.877 125.139 106.936 124.392 109.474 123.816C112.013 123.219 115.117 122.877 118.786 122.792V120.264C118.786 117.747 118.242 115.848 117.154 114.568C116.088 113.267 114.498 112.616 112.386 112.616C111 112.616 109.826 112.797 108.866 113.16C107.928 113.501 107.106 113.896 106.402 114.344C105.72 114.771 105.122 115.165 104.61 115.528C104.12 115.869 103.629 116.04 103.138 116.04C102.754 116.04 102.413 115.944 102.114 115.752C101.837 115.539 101.613 115.283 101.442 114.984L100.418 113.16C102.21 111.432 104.141 110.141 106.21 109.288C108.28 108.435 110.573 108.008 113.09 108.008C114.904 108.008 116.514 108.307 117.922 108.904C119.33 109.501 120.514 110.333 121.474 111.4C122.434 112.467 123.16 113.757 123.65 115.272C124.141 116.787 124.386 118.451 124.386 120.264V141ZM109.602 137.512C110.605 137.512 111.522 137.416 112.354 137.224C113.186 137.011 113.965 136.723 114.69 136.36C115.437 135.976 116.141 135.517 116.802 134.984C117.485 134.451 118.146 133.843 118.786 133.16V126.408C116.162 126.493 113.933 126.707 112.098 127.048C110.264 127.368 108.77 127.795 107.618 128.328C106.466 128.861 105.624 129.491 105.09 130.216C104.578 130.941 104.322 131.752 104.322 132.648C104.322 133.501 104.461 134.237 104.738 134.856C105.016 135.475 105.389 135.987 105.858 136.392C106.328 136.776 106.882 137.064 107.522 137.256C108.162 137.427 108.856 137.512 109.602 137.512ZM133.016 141V108.584H136.28C136.898 108.584 137.325 108.701 137.56 108.936C137.794 109.171 137.954 109.576 138.04 110.152L138.424 115.208C139.533 112.947 140.898 111.187 142.52 109.928C144.162 108.648 146.082 108.008 148.28 108.008C149.176 108.008 149.986 108.115 150.712 108.328C151.437 108.52 152.109 108.797 152.728 109.16L151.992 113.416C151.842 113.949 151.512 114.216 151 114.216C150.701 114.216 150.242 114.12 149.624 113.928C149.005 113.715 148.141 113.608 147.032 113.608C145.048 113.608 143.384 114.184 142.04 115.336C140.717 116.488 139.608 118.163 138.712 120.36V141H133.016ZM171.948 108.072C174.316 108.072 176.45 108.467 178.348 109.256C180.268 110.045 181.89 111.165 183.212 112.616C184.556 114.067 185.58 115.827 186.284 117.896C187.01 119.944 187.372 122.237 187.372 124.776C187.372 127.336 187.01 129.64 186.284 131.688C185.58 133.736 184.556 135.485 183.212 136.936C181.89 138.387 180.268 139.507 178.348 140.296C176.45 141.064 174.316 141.448 171.948 141.448C169.58 141.448 167.436 141.064 165.516 140.296C163.618 139.507 161.996 138.387 160.652 136.936C159.308 135.485 158.274 133.736 157.548 131.688C156.823 129.64 156.46 127.336 156.46 124.776C156.46 122.237 156.823 119.944 157.548 117.896C158.274 115.827 159.308 114.067 160.652 112.616C161.996 111.165 163.618 110.045 165.516 109.256C167.436 108.467 169.58 108.072 171.948 108.072ZM171.948 137C175.148 137 177.538 135.933 179.116 133.8C180.695 131.645 181.484 128.648 181.484 124.808C181.484 120.947 180.695 117.939 179.116 115.784C177.538 113.629 175.148 112.552 171.948 112.552C170.327 112.552 168.919 112.829 167.724 113.384C166.53 113.939 165.527 114.739 164.716 115.784C163.927 116.829 163.33 118.12 162.924 119.656C162.54 121.171 162.348 122.888 162.348 124.808C162.348 126.728 162.54 128.445 162.924 129.96C163.33 131.475 163.927 132.755 164.716 133.8C165.527 134.824 166.53 135.613 167.724 136.168C168.919 136.723 170.327 137 171.948 137ZM204.215 141.512C201.655 141.512 199.681 140.797 198.295 139.368C196.929 137.939 196.247 135.88 196.247 133.192V113.352H192.343C192.001 113.352 191.713 113.256 191.479 113.064C191.244 112.851 191.127 112.531 191.127 112.104V109.832L196.439 109.16L197.751 99.144C197.793 98.824 197.932 98.568 198.167 98.376C198.401 98.1627 198.7 98.056 199.063 98.056H201.943V109.224H211.223V113.352H201.943V132.808C201.943 134.173 202.273 135.187 202.935 135.848C203.596 136.509 204.449 136.84 205.495 136.84C206.092 136.84 206.604 136.765 207.031 136.616C207.479 136.445 207.863 136.264 208.183 136.072C208.503 135.88 208.769 135.709 208.983 135.56C209.217 135.389 209.42 135.304 209.591 135.304C209.889 135.304 210.156 135.485 210.391 135.848L212.055 138.568C211.073 139.485 209.889 140.211 208.503 140.744C207.116 141.256 205.687 141.512 204.215 141.512Z" fill="white"/>
</g>
</g>
<defs>
<filter id="filter0_d" x="28.3903" y="91.864" width="189.665" height="59.648" filterUnits="userSpaceOnUse" color-interpolation-filters="sRGB">
<feFlood flood-opacity="0" result="BackgroundImageFix"/>
<feColorMatrix in="SourceAlpha" type="matrix" values="0 0 0 0 0 0 0 0 0 0 0 0 0 0 0 0 0 0 127 0"/>
<feOffset dy="4"/>
<feGaussianBlur stdDeviation="3"/>
<feColorMatrix type="matrix" values="0 0 0 0 0 0 0 0 0 0 0 0 0 0 0 0 0 0 0.25 0"/>
<feBlend mode="normal" in2="BackgroundImageFix" result="effect1_dropShadow"/>
<feBlend mode="normal" in="SourceGraphic" in2="effect1_dropShadow" result="shape"/>
</filter>
<linearGradient id="paint0_linear" x1="92.9127" y1="-100.66" x2="85.7367" y2="401.052" gradientUnits="userSpaceOnUse">
<stop stop-color="#360083"/>
<stop offset="1" stop-color="#081026"/>
</linearGradient>
<linearGradient id="paint1_linear" x1="-215.764" y1="496.774" x2="186.991" y2="11.9092" gradientUnits="userSpaceOnUse">
<stop stop-color="#360084"/>
<stop offset="1" stop-color="#091026"/>
</linearGradient>
<linearGradient id="paint2_linear" x1="119.119" y1="-181.472" x2="226.418" y2="53.0769" gradientUnits="userSpaceOnUse">
<stop stop-color="#360084"/>
<stop offset="1" stop-color="#091026"/>
</linearGradient>
<linearGradient id="paint3_linear" x1="250.243" y1="394.899" x2="6.57214" y2="101.549" gradientUnits="userSpaceOnUse">
<stop stop-color="#360084"/>
<stop offset="1" stop-color="#091026"/>
</linearGradient>
<linearGradient id="paint4_linear" x1="190.705" y1="70.182" x2="34.7081" y2="400.155" gradientUnits="userSpaceOnUse">
<stop stop-color="#3C1EB4"/>
<stop offset="1" stop-color="#1A0058"/>
</linearGradient>
<linearGradient id="paint5_linear" x1="213.82" y1="81.1014" x2="49.6052" y2="428.459" gradientUnits="userSpaceOnUse">
<stop stop-color="#3C1EB4"/>
<stop offset="1" stop-color="#1A0058"/>
</linearGradient>
<linearGradient id="paint6_linear" x1="143.131" y1="-180.652" x2="-15.8941" y2="155.724" gradientUnits="userSpaceOnUse">
<stop stop-color="#3C1EB4"/>
<stop offset="1" stop-color="#1A0058"/>
</linearGradient>
<linearGradient id="paint7_linear" x1="203.239" y1="-152.982" x2="43.936" y2="183.983" gradientUnits="userSpaceOnUse">
<stop stop-color="#3C1EB4"/>
<stop offset="1" stop-color="#1A0058"/>
</linearGradient>
<linearGradient id="paint8_linear" x1="-88.298" y1="229.237" x2="151.2" y2="154.003" gradientUnits="userSpaceOnUse">
<stop stop-color="#292AAD"/>
<stop offset="1" stop-color="#AAFFB3"/>
</linearGradient>
<linearGradient id="paint9_linear" x1="-108.812" y1="-76.5316" x2="117.662" y2="36.4944" gradientUnits="userSpaceOnUse">
<stop offset="0.21" stop-color="#201549"/>
<stop offset="1" stop-color="#7CDBBF"/>
</linearGradient>
<linearGradient id="paint10_linear" x1="-94.6704" y1="-75.1859" x2="119.055" y2="31.4568" gradientUnits="userSpaceOnUse">
<stop offset="0.21" stop-color="#201549"/>
<stop offset="1" stop-color="#7CDBBF"/>
</linearGradient>
<linearGradient id="paint11_linear" x1="-72.7391" y1="-39.3369" x2="95.7447" y2="44.7169" gradientUnits="userSpaceOnUse">
<stop offset="0.21" stop-color="#201549"/>
<stop offset="1" stop-color="#7CDBBF"/>
</linearGradient>
<linearGradient id="paint12_linear" x1="-84.7381" y1="-49.2257" x2="100.335" y2="43.1317" gradientUnits="userSpaceOnUse">
<stop offset="0.21" stop-color="#201549"/>
<stop offset="1" stop-color="#7CDBBF"/>
</linearGradient>
<linearGradient id="paint13_linear" x1="-94.0626" y1="-52.8678" x2="106.605" y2="47.2558" gradientUnits="userSpaceOnUse">
<stop offset="0.21" stop-color="#201549"/>
<stop offset="1" stop-color="#7CDBBF"/>
</linearGradient>
<linearGradient id="paint14_linear" x1="-100.133" y1="-50.094" x2="114.146" y2="56.8438" gradientUnits="userSpaceOnUse">
<stop offset="0.21" stop-color="#201549"/>
<stop offset="1" stop-color="#7CDBBF"/>
</linearGradient>
<linearGradient id="paint15_linear" x1="-88.9474" y1="-46.4092" x2="101.525" y2="48.6177" gradientUnits="userSpaceOnUse">
<stop offset="0.21" stop-color="#201549"/>
<stop offset="1" stop-color="#7CDBBF"/>
</linearGradient>
<linearGradient id="paint16_linear" x1="105.929" y1="440.263" x2="118.933" y2="206.966" gradientUnits="userSpaceOnUse">
<stop offset="0.21" stop-color="#201549"/>
<stop offset="1" stop-color="#7CDBBF"/>
</linearGradient>
<linearGradient id="paint17_linear" x1="92.5644" y1="394.309" x2="102.236" y2="220.772" gradientUnits="userSpaceOnUse">
<stop offset="0.21" stop-color="#201549"/>
<stop offset="1" stop-color="#7CDBBF"/>
</linearGradient>
<linearGradient id="paint18_linear" x1="90.8313" y1="410.536" x2="101.765" y2="214.352" gradientUnits="userSpaceOnUse">
<stop offset="0.21" stop-color="#201549"/>
<stop offset="1" stop-color="#7CDBBF"/>
</linearGradient>
<linearGradient id="paint19_linear" x1="-27.3495" y1="28.4278" x2="-38.8533" y2="65.9154" gradientUnits="userSpaceOnUse">
<stop stop-color="#DDFF8E"/>
<stop offset="1" stop-color="#DB3863"/>
</linearGradient>
<linearGradient id="paint20_linear" x1="-33.4226" y1="-21.5005" x2="-27.572" y2="63.629" gradientUnits="userSpaceOnUse">
<stop stop-color="#DDFF8E"/>
<stop offset="1" stop-color="#DB3863"/>
</linearGradient>
<linearGradient id="paint21_linear" x1="-117.113" y1="355.133" x2="23.4561" y2="129.284" gradientUnits="userSpaceOnUse">
<stop stop-color="#292AAD"/>
<stop offset="1" stop-color="#AAFFB3"/>
</linearGradient>
<linearGradient id="paint22_linear" x1="284.098" y1="-25.4683" x2="413.677" y2="258.241" gradientUnits="userSpaceOnUse">
<stop stop-color="#CAFFB4"/>
<stop offset="1" stop-color="#83BCEC"/>
</linearGradient>
<linearGradient id="paint23_linear" x1="253.048" y1="244.436" x2="188.934" y2="289.408" gradientUnits="userSpaceOnUse">
<stop stop-color="#DDFF8E"/>
<stop offset="1" stop-color="#DB3863"/>
</linearGradient>
<linearGradient id="paint24_linear" x1="351.7" y1="225.217" x2="186.292" y2="266.578" gradientUnits="userSpaceOnUse">
<stop stop-color="#DDFF8E"/>
<stop offset="1" stop-color="#DB3863"/>
</linearGradient>
<linearGradient id="paint25_linear" x1="-110.447" y1="449.46" x2="51.9856" y2="202.065" gradientUnits="userSpaceOnUse">
<stop stop-color="#DDFF8E"/>
<stop offset="1" stop-color="#DB3863"/>
</linearGradient>
<linearGradient id="paint26_linear" x1="-72.651" y1="430.526" x2="63.9316" y2="222.522" gradientUnits="userSpaceOnUse">
<stop stop-color="#DDFF8E"/>
<stop offset="1" stop-color="#DB3863"/>
</linearGradient>
<linearGradient id="paint27_linear" x1="-60.4149" y1="80.7065" x2="-17.1431" y2="43.2877" gradientUnits="userSpaceOnUse">
<stop stop-color="#360084"/>
<stop offset="1" stop-color="#DB3863"/>
</linearGradient>
<linearGradient id="paint28_linear" x1="-91.6435" y1="147.059" x2="-32.943" y2="37.3574" gradientUnits="userSpaceOnUse">
<stop stop-color="#360084"/>
<stop offset="1" stop-color="#DB3863"/>
</linearGradient>
<linearGradient id="paint29_linear" x1="160.228" y1="281.453" x2="115.588" y2="268.929" gradientUnits="userSpaceOnUse">
<stop stop-color="#360084"/>
<stop offset="1" stop-color="#DB3863"/>
</linearGradient>
<linearGradient id="paint30_linear" x1="206.017" y1="319.355" x2="125.138" y2="259.113" gradientUnits="userSpaceOnUse">
<stop stop-color="#360084"/>
<stop offset="1" stop-color="#DB3863"/>
</linearGradient>
<linearGradient id="paint31_linear" x1="416.721" y1="1.44117" x2="147.745" y2="111.338" gradientUnits="userSpaceOnUse">
<stop stop-color="#DDFF8E"/>
<stop offset="1" stop-color="#DB3863"/>
</linearGradient>
<linearGradient id="paint32_linear" x1="404.833" y1="12.6229" x2="151.038" y2="116.321" gradientUnits="userSpaceOnUse">
<stop stop-color="#DDFF8E"/>
<stop offset="1" stop-color="#DB3863"/>
</linearGradient>
<linearGradient id="paint33_linear" x1="393.692" y1="17.3992" x2="157.622" y2="113.835" gradientUnits="userSpaceOnUse">
<stop stop-color="#DDFF8E"/>
<stop offset="1" stop-color="#DB3863"/>
</linearGradient>
<linearGradient id="paint34_linear" x1="357.266" y1="4.37456" x2="157.201" y2="86.1194" gradientUnits="userSpaceOnUse">
<stop stop-color="#DDFF8E"/>
<stop offset="1" stop-color="#DB3863"/>
</linearGradient>
<linearGradient id="paint35_linear" x1="374.898" y1="1.51356" x2="155.111" y2="91.3122" gradientUnits="userSpaceOnUse">
<stop stop-color="#DDFF8E"/>
<stop offset="1" stop-color="#DB3863"/>
</linearGradient>
<linearGradient id="paint36_linear" x1="385.124" y1="-3.7538" x2="146.792" y2="93.6099" gradientUnits="userSpaceOnUse">
<stop stop-color="#DDFF8E"/>
<stop offset="1" stop-color="#DB3863"/>
</linearGradient>
<linearGradient id="paint37_linear" x1="375.664" y1="-4.24112" x2="149.465" y2="88.186" gradientUnits="userSpaceOnUse">
<stop stop-color="#DDFF8E"/>
<stop offset="1" stop-color="#DB3863"/>
</linearGradient>
<clipPath id="clip0">
<rect width="369" height="246" fill="white" transform="translate(-56)"/>
</clipPath>
</defs>
</svg>
