<svg width="154" height="70" viewBox="0 0 154 70" fill="none" xmlns="http://www.w3.org/2000/svg">
    <path d="M36.0652 51.944C36.6892 51.944 37.1692 52.232 37.5052 52.808C37.8892 53.384 38.0812 54.176 38.0812 55.184C38.0812 57.104 37.6252 58.592 36.7132 59.648C34.6492 62.192 32.3932 64.28 29.9452 65.912C27.4972 67.544 24.6892 68.36 21.5212 68.36C11.7292 68.36 6.83319 61.472 6.83319 47.696C6.83319 45.584 6.90519 43.448 7.04919 41.288H4.24118C2.80118 41.288 1.81718 41.024 1.28918 40.496C0.809185 39.968 0.569185 39.128 0.569185 37.976C0.569185 35.288 1.64918 33.944 3.80919 33.944H7.91319C8.72919 28.664 9.97719 23.84 11.6572 19.472C13.3372 15.104 15.3532 11.624 17.7052 9.032C20.1052 6.44 22.6732 5.144 25.4092 5.144C27.4252 5.144 29.0092 6.032 30.1612 7.808C31.3132 9.584 31.8892 11.816 31.8892 14.504C31.8892 21.944 28.7692 28.424 22.5292 33.944H30.5932C31.3612 33.944 31.9132 34.112 32.2492 34.448C32.5852 34.784 32.7532 35.408 32.7532 36.32C32.7532 39.632 30.0412 41.288 24.6172 41.288H15.8332C15.7372 43.688 15.6892 45.56 15.6892 46.904C15.6892 51.896 16.2652 55.4 17.4172 57.416C18.6172 59.432 20.4892 60.44 23.0332 60.44C25.0972 60.44 26.9212 59.816 28.5052 58.568C30.0892 57.32 31.9612 55.448 34.1212 52.952C34.6972 52.28 35.3452 51.944 36.0652 51.944ZM23.4652 12.056C22.7452 12.056 21.9292 12.968 21.0172 14.792C20.1532 16.568 19.3132 19.064 18.4972 22.28C17.7292 25.448 17.0812 28.976 16.5532 32.864C19.3852 30.416 21.4972 27.68 22.8892 24.656C24.3292 21.584 25.0492 18.8 25.0492 16.304C25.0492 13.472 24.5212 12.056 23.4652 12.056ZM67.4988 45.896C68.1228 45.896 68.6028 46.208 68.9388 46.832C69.2748 47.456 69.4428 48.248 69.4428 49.208C69.4428 51.512 68.7468 52.88 67.3548 53.312C64.4748 54.32 61.3068 54.896 57.8508 55.04C56.9388 59.072 55.1388 62.312 52.4508 64.76C49.7628 67.16 46.7148 68.36 43.3068 68.36C40.4268 68.36 37.9548 67.664 35.8908 66.272C33.8748 64.88 32.3388 63.032 31.2828 60.728C30.2268 58.424 29.6988 55.928 29.6988 53.24C29.6988 49.592 30.3948 46.352 31.7868 43.52C33.1788 40.64 35.0988 38.408 37.5468 36.824C39.9948 35.192 42.7068 34.376 45.6828 34.376C49.3308 34.376 52.2588 35.648 54.4668 38.192C56.7228 40.688 58.0428 43.784 58.4268 47.48C60.6828 47.336 63.3708 46.856 66.4908 46.04C66.8748 45.944 67.2108 45.896 67.4988 45.896ZM43.8828 60.728C45.4188 60.728 46.7388 60.104 47.8428 58.856C48.9948 57.608 49.7628 55.808 50.1468 53.456C48.6588 52.448 47.5068 51.128 46.6908 49.496C45.9228 47.864 45.5388 46.136 45.5388 44.312C45.5388 43.544 45.6108 42.776 45.7548 42.008H45.3948C43.4748 42.008 41.8668 42.944 40.5708 44.816C39.3228 46.64 38.6988 49.232 38.6988 52.592C38.6988 55.232 39.2028 57.248 40.2108 58.64C41.2668 60.032 42.4908 60.728 43.8828 60.728ZM102.719 51.944C103.343 51.944 103.823 52.232 104.159 52.808C104.543 53.384 104.735 54.176 104.735 55.184C104.735 57.104 104.279 58.592 103.367 59.648C101.399 62.048 99.2392 64.112 96.8872 65.84C94.5352 67.52 92.2072 68.36 89.9032 68.36C86.2552 68.36 83.4712 66.224 81.5512 61.952C79.5352 64.496 77.7592 66.2 76.2232 67.064C74.7352 67.928 72.9832 68.36 70.9672 68.36C68.0392 68.36 65.6152 67.28 63.6952 65.12C61.8232 62.912 60.8872 60.056 60.8872 56.552C60.8872 52.712 61.7032 49.16 63.3352 45.896C64.9672 42.584 67.1992 39.896 70.0312 37.832C72.9112 35.72 76.1272 34.472 79.6792 34.088C80.5912 24.776 82.3192 16.832 84.8632 10.256C87.4552 3.632 90.8392 0.319996 95.0152 0.319996C97.0792 0.319996 98.7832 1.256 100.127 3.128C101.519 5 102.215 7.832 102.215 11.624C102.215 17 100.895 23.288 98.2552 30.488C95.6152 37.688 92.0872 45.08 87.6712 52.664C87.8632 55.448 88.2712 57.44 88.8952 58.64C89.5672 59.84 90.4072 60.44 91.4152 60.44C92.7112 60.44 94.0312 59.864 95.3752 58.712C96.7192 57.56 98.5192 55.64 100.775 52.952C101.351 52.28 101.999 51.944 102.719 51.944ZM94.2232 7.376C93.3112 7.376 92.3992 9.008 91.4872 12.272C90.5752 15.488 89.7832 19.712 89.1112 24.944C88.4872 30.176 88.0312 35.648 87.7432 41.36C93.1192 29.648 95.8072 20.24 95.8072 13.136C95.8072 11.312 95.6392 9.896 95.3032 8.888C95.0152 7.88 94.6552 7.376 94.2232 7.376ZM73.4872 61.088C74.3992 61.088 75.3112 60.728 76.2232 60.008C77.1352 59.24 78.2872 57.848 79.6792 55.832C79.1992 53.24 78.9592 50.336 78.9592 47.12C78.9592 45.968 79.0072 44.096 79.1032 41.504C76.4632 42.32 74.2552 44.096 72.4792 46.832C70.7512 49.52 69.8872 52.52 69.8872 55.832C69.8872 59.336 71.0872 61.088 73.4872 61.088ZM109.606 68.36C106.774 68.36 104.35 67.664 102.334 66.272C100.366 64.832 98.8779 62.96 97.8699 60.656C96.8619 58.352 96.3579 55.88 96.3579 53.24C96.3579 49.592 97.0299 46.352 98.3739 43.52C99.7659 40.64 101.638 38.408 103.99 36.824C106.342 35.192 108.982 34.376 111.91 34.376C114.742 34.376 117.166 35.096 119.182 36.536C121.198 37.928 122.71 39.776 123.718 42.08C124.726 44.384 125.23 46.856 125.23 49.496C125.23 53.144 124.534 56.408 123.142 59.288C121.75 62.12 119.854 64.352 117.454 65.984C115.102 67.568 112.486 68.36 109.606 68.36ZM110.398 60.584C112.03 60.584 113.398 59.696 114.502 57.92C115.654 56.144 116.23 53.552 116.23 50.144C116.23 47.504 115.75 45.512 114.79 44.168C113.83 42.824 112.678 42.152 111.334 42.152C109.606 42.152 108.166 43.04 107.014 44.816C105.91 46.544 105.358 49.136 105.358 52.592C105.358 55.328 105.838 57.344 106.798 58.64C107.758 59.936 108.958 60.584 110.398 60.584ZM142.015 69.944C139.519 69.944 137.599 69.368 136.255 68.216C134.959 67.064 134.311 65.768 134.311 64.328C134.311 63.08 134.767 62 135.679 61.088C136.591 60.176 137.935 59.72 139.711 59.72C140.335 59.72 141.055 59.792 141.871 59.936C142.735 60.032 143.383 60.104 143.815 60.152C143.767 58.904 143.479 57.728 142.951 56.624C142.471 55.52 141.847 54.464 141.079 53.456C140.311 52.4 139.591 51.488 138.919 50.72C137.431 53.552 135.943 55.904 134.455 57.776C133.015 59.648 131.431 61.424 129.703 63.104C128.839 63.968 127.927 64.4 126.967 64.4C126.199 64.4 125.575 64.136 125.095 63.608C124.615 63.032 124.375 62.336 124.375 61.52C124.375 60.56 124.711 59.672 125.383 58.856L126.319 57.704C128.959 54.44 130.951 51.752 132.295 49.64C133.159 48.248 134.023 46.592 134.887 44.672C135.799 42.752 136.975 40.136 138.415 36.824C139.327 34.712 141.223 33.656 144.103 33.656C145.447 33.656 146.383 33.776 146.911 34.016C147.439 34.256 147.703 34.64 147.703 35.168C147.703 35.456 147.607 35.912 147.415 36.536C147.223 37.16 146.959 37.784 146.623 38.408C145.759 40.136 145.327 41.6 145.327 42.8C145.327 43.52 145.567 44.312 146.047 45.176C146.575 46.04 147.367 47.12 148.423 48.416C149.959 50.432 151.111 52.16 151.879 53.6C152.695 54.992 153.103 56.528 153.103 58.208C153.103 60.224 152.623 62.144 151.663 63.968C150.751 65.744 149.455 67.184 147.775 68.288C146.095 69.392 144.175 69.944 142.015 69.944Z" fill="white"/>
</svg>
