<svg id="Слой_1" data-name="Слой 1" xmlns="http://www.w3.org/2000/svg" viewBox="0 0 417 483.36432"><defs><style>.cls-1,.cls-3{fill:#2c495c;}.cls-1{stroke:#2c495c;}.cls-1,.cls-2{stroke-linejoin:round;}.cls-2{fill:#1fb47f;stroke:#1fb47f;}</style></defs><title>Безымянный-1</title><polygon class="cls-1" points="82.5 0.5 158.5 0.5 208.5 83.5 208.5 217.5 82.5 0.5"/><polygon class="cls-1" points="334.5 0.5 258.5 0.5 208.5 83.5 208.5 217.5 334.5 0.5"/><polygon class="cls-2" points="416.5 0.5 334.5 0.5 208.5 217.5 208.5 359.5 416.5 0.5"/><polygon class="cls-2" points="0.5 0.5 82.5 0.5 208.5 217.5 208.5 359.5 0.5 0.5"/><path class="cls-3" d="M1255.39355,736.19922a9.78756,9.78756,0,0,1-4.15039-.89942,4.509,4.509,0,0,1-2.5498-2.70019L1228.793,667.7998a3.15343,3.15343,0,0,1-.19922-.90039,2.9428,2.9428,0,0,1,1.0498-2.25,8.293,8.293,0,0,1,2.59961-1.5498,8.15993,8.15993,0,0,1,2.9502-.59961,5.32754,5.32754,0,0,1,2.40039.5,2.45935,2.45935,0,0,1,1.2998,1.69922l16.5,57,16.39942-57A2.77745,2.77745,0,0,1,1273.19336,663a5.0765,5.0765,0,0,1,2.2998-.5,8.01686,8.01686,0,0,1,3,.59961,8.42078,8.42078,0,0,1,2.54981,1.5498,2.94384,2.94384,0,0,1,1.05078,2.25,1.64249,1.64249,0,0,1-.05078.40039,2.06283,2.06283,0,0,0-.04981.5l-19.7998,64.79981a4.509,4.509,0,0,1-2.54981,2.70019A10.02627,10.02627,0,0,1,1255.39355,736.19922Z" transform="translate(-1154.44118 -274.73529)"/><path class="cls-3" d="M1313.39355,736.39941a20.27835,20.27835,0,0,1-10.35058-2.75,21.11905,21.11905,0,0,1-7.54981-7.2998,18.10821,18.10821,0,0,1-2.7998-9.65039v-25a3.03445,3.03445,0,0,1,1.5498-2.39942,6.31054,6.31054,0,0,1,3.75-1.10058,6.14714,6.14714,0,0,1,3.65039,1.10058,3.0393,3.0393,0,0,1,1.54981,2.39942v25a10.063,10.063,0,0,0,1.34961,5,10.90649,10.90649,0,0,0,3.70019,3.90039,9.37945,9.37945,0,0,0,5.15039,1.5,9.14366,9.14366,0,0,0,5.09961-1.5,11.06746,11.06746,0,0,0,3.65039-3.90039,10.063,10.063,0,0,0,1.34961-5V691.59961a2.84947,2.84947,0,0,1,1.65039-2.40039,6.9171,6.9171,0,0,1,3.64942-1,6.47984,6.47984,0,0,1,3.749,1,2.88781,2.88781,0,0,1,1.45117,2.40039v25.09961a18.219,18.219,0,0,1-2.7998,9.80078,21.00363,21.00363,0,0,1-7.5,7.19922A20.31287,20.31287,0,0,1,1313.39355,736.39941Z" transform="translate(-1154.44118 -274.73529)"/><path class="cls-3" d="M1373.792,736.39941a27.36582,27.36582,0,0,1-12-2.5,20.182,20.182,0,0,1-8.20019-6.95019,18.24022,18.24022,0,0,1-3-10.44922V707a17.48473,17.48473,0,0,1,2.84961-9.7002,21.31176,21.31176,0,0,1,7.5498-7.0498,20.819,20.819,0,0,1,10.40039-2.65039,21.07722,21.07722,0,0,1,9.90039,2.34961,19.08017,19.08017,0,0,1,7.25,6.55078,17.14,17.14,0,0,1,2.75,9.59961q0,4.1997-1.30078,6a5.29089,5.29089,0,0,1-3.39941,2.20019,23.49314,23.49314,0,0,1-4.40039.39942H1361.0918V717a9.68276,9.68276,0,0,0,3.64941,7.94922,14.39806,14.39806,0,0,0,9.35059,2.95019,13.87075,13.87075,0,0,0,5.70019-1A37.18654,37.18654,0,0,0,1383.49121,725a5.49876,5.49876,0,0,1,2.80078-.90039,3.19837,3.19837,0,0,1,2.19922.7998,5.64378,5.64378,0,0,1,1.40039,1.90039,4.90122,4.90122,0,0,1,.5,2q0,1.5-2.0498,3.29981a16.84519,16.84519,0,0,1-5.75,3.0498A27.60578,27.60578,0,0,1,1373.792,736.39941Zm-12.70019-28.20019h16.59961a5.04579,5.04579,0,0,0,2.95019-.59961,2.98949,2.98949,0,0,0,.75-2.40039,9.547,9.547,0,0,0-1.2998-4.84961,9.10075,9.10075,0,0,0-3.60059-3.5,10.71637,10.71637,0,0,0-5.19922-1.25,10.8598,10.8598,0,0,0-5.10058,1.20019,9.82088,9.82088,0,0,0-3.7002,3.29981A8.62707,8.62707,0,0,0,1361.0918,705Z" transform="translate(-1154.44118 -274.73529)"/><path class="cls-3" d="M1411.49121,736.19922a5.65738,5.65738,0,0,1-4.2998-1.79981,6.09977,6.09977,0,0,1,0-8.45019,5.74407,5.74407,0,0,1,4.2998-1.75,5.67708,5.67708,0,0,1,4.14942,1.75,5.97528,5.97528,0,0,1,0,8.45019A5.59352,5.59352,0,0,1,1411.49121,736.19922Z" transform="translate(-1154.44118 -274.73529)"/><path class="cls-3" d="M1430.08984,758.09961q-3.09815,0-4.25-1.40039a4.871,4.871,0,0,1,.05079-6.34961,3.87,3.87,0,0,1,2.89941-1.25,4.46421,4.46421,0,0,0,3.45019-1.25,6.26419,6.26419,0,0,0,1.4502-3.5,39.31624,39.31624,0,0,0,.2998-5.15039V691.59961a2.83813,2.83813,0,0,1,1.4502-2.4502,6.5306,6.5306,0,0,1,3.64941-.95019,7.25445,7.25445,0,0,1,3.85059.95019,2.81564,2.81564,0,0,1,1.5498,2.4502v47.59961A28.83069,28.83069,0,0,1,1442.94043,749a14.09462,14.09462,0,0,1-4.75,6.69922A13.13061,13.13061,0,0,1,1430.08984,758.09961Zm9.10059-81.79981a6.03668,6.03668,0,0,1-4.2998-1.70019,5.13076,5.13076,0,0,1-1.80079-3.79981,5.02788,5.02788,0,0,1,1.80079-3.90039,6.25644,6.25644,0,0,1,4.2998-1.59961,6.08071,6.08071,0,0,1,4.25,1.59961,5.094,5.094,0,0,1,1.75,3.90039,5.19769,5.19769,0,0,1-1.75,3.79981A5.871,5.871,0,0,1,1439.19043,676.2998Z" transform="translate(-1154.44118 -274.73529)"/><path class="cls-3" d="M1477.89063,736.39941a29.85392,29.85392,0,0,1-8.79981-1.20019,17.91978,17.91978,0,0,1-6.15039-3.04981q-2.25-1.84863-2.25-3.75a5.78009,5.78009,0,0,1,1.75-3.89941,2.6517,2.6517,0,0,1,1.85059-.80078,4.527,4.527,0,0,1,2.75,1.15039,20.37641,20.37641,0,0,0,3.84961,2.2998,15.8109,15.8109,0,0,0,6.70019,1.15039q4.99951,0,6.75-1.70019a5.09914,5.09914,0,0,0,1.75-3.7002,4.97509,4.97509,0,0,0-1.75-4.0498,13.6402,13.6402,0,0,0-4.5-2.34961q-2.75244-.90089-5.85059-1.75a30.77694,30.77694,0,0,1-5.8496-2.25,12.10574,12.10574,0,0,1-4.5-3.90039,11.279,11.279,0,0,1-1.75-6.59961,14.77409,14.77409,0,0,1,1.70019-6.75,13.29651,13.29651,0,0,1,5.4502-5.5q3.75-2.15038,10.0498-2.15039a31.432,31.432,0,0,1,7.2002.7998,19.09665,19.09665,0,0,1,5.59961,2.15039q2.19873,1.34913,2.20019,2.9502a5.71443,5.71443,0,0,1-.5,1.94922,7.38723,7.38723,0,0,1-1.35059,2.20019,2.75614,2.75614,0,0,1-2.14941.9502,5.8953,5.8953,0,0,1-2.5-.75,30.35331,30.35331,0,0,0-3.5-1.4502,14.97732,14.97732,0,0,0-4.90039-.70019,9.75016,9.75016,0,0,0-4.64941.95019,6.58522,6.58522,0,0,0-2.55079,2.25,4.92251,4.92251,0,0,0-.7998,2.60059,3.91209,3.91209,0,0,0,1.7002,3.39941,14.88628,14.88628,0,0,0,4.5,2q2.79784.80127,5.90039,1.65039A24.49333,24.49333,0,0,1,1489.14063,711a13.22421,13.22421,0,0,1,4.5,4.2998,13.08544,13.08544,0,0,1,1.75,7.2002,12.502,12.502,0,0,1-4.54981,10.09961Q1486.28955,736.40088,1477.89063,736.39941Z" transform="translate(-1154.44118 -274.73529)"/></svg>